<svg xmlns="http://www.w3.org/2000/svg" width="3840" height="2160"><path d="M2037,1071L2268,912L2094,845Z" fill="rgb(219,180,119)" stroke="rgb(219,180,119)" stroke-width="1.51"/><path d="M2094,845L1656,963L2037,1071Z" fill="rgb(237,191,115)" stroke="rgb(237,191,115)" stroke-width="1.51"/><path d="M2268,912L2167,506L2094,845Z" fill="rgb(205,184,147)" stroke="rgb(205,184,147)" stroke-width="1.51"/><path d="M1762,302L1656,963L2094,845Z" fill="rgb(223,201,160)" stroke="rgb(223,201,160)" stroke-width="1.51"/><path d="M2037,1071L2467,1413L2268,912Z" fill="rgb(206,165,100)" stroke="rgb(206,165,100)" stroke-width="1.51"/><path d="M1646,1503L2007,1482L2037,1071Z" fill="rgb(201,163,103)" stroke="rgb(201,163,103)" stroke-width="1.51"/><path d="M2007,1482L2467,1413L2037,1071Z" fill="rgb(185,152,103)" stroke="rgb(185,152,103)" stroke-width="1.51"/><path d="M2876,734L2239,320L2167,506Z" fill="rgb(162,174,174)" stroke="rgb(162,174,174)" stroke-width="1.51"/><path d="M2467,1413L2598,1294L2268,912Z" fill="rgb(179,148,103)" stroke="rgb(179,148,103)" stroke-width="1.51"/><path d="M2876,734L2167,506L2268,912Z" fill="rgb(178,171,152)" stroke="rgb(178,171,152)" stroke-width="1.51"/><path d="M2167,506L1762,302L2094,845Z" fill="rgb(208,199,175)" stroke="rgb(208,199,175)" stroke-width="1.51"/><path d="M1656,963L1646,1503L2037,1071Z" fill="rgb(225,181,110)" stroke="rgb(225,181,110)" stroke-width="1.51"/><path d="M2598,1294L2871,1011L2268,912Z" fill="rgb(186,153,103)" stroke="rgb(186,153,103)" stroke-width="1.51"/><path d="M2871,1011L2876,734L2268,912Z" fill="rgb(168,154,130)" stroke="rgb(168,154,130)" stroke-width="1.51"/><path d="M2239,320L1762,302L2167,506Z" fill="rgb(176,168,147)" stroke="rgb(176,168,147)" stroke-width="1.51"/><path d="M1656,963L1098,1540L1646,1503Z" fill="rgb(191,171,137)" stroke="rgb(191,171,137)" stroke-width="1.51"/><path d="M1762,302L1403,654L1656,963Z" fill="rgb(210,207,188)" stroke="rgb(210,207,188)" stroke-width="1.51"/><path d="M2007,1482L2027,1831L2467,1413Z" fill="rgb(146,129,105)" stroke="rgb(146,129,105)" stroke-width="1.51"/><path d="M2467,1413L2721,1796L2598,1294Z" fill="rgb(121,114,106)" stroke="rgb(121,114,106)" stroke-width="1.51"/><path d="M1646,1503L2027,1831L2007,1482Z" fill="rgb(162,139,106)" stroke="rgb(162,139,106)" stroke-width="1.51"/><path d="M2239,320L1964,76L1762,302Z" fill="rgb(160,147,122)" stroke="rgb(160,147,122)" stroke-width="1.51"/><path d="M1762,302L1433,116L1403,654Z" fill="rgb(170,179,174)" stroke="rgb(170,179,174)" stroke-width="1.51"/><path d="M2394,-77L1964,76L2239,320Z" fill="rgb(123,116,101)" stroke="rgb(123,116,101)" stroke-width="1.51"/><path d="M2027,1831L2502,1877L2467,1413Z" fill="rgb(127,121,115)" stroke="rgb(127,121,115)" stroke-width="1.51"/><path d="M2598,1294L3203,1522L2871,1011Z" fill="rgb(130,121,106)" stroke="rgb(130,121,106)" stroke-width="1.51"/><path d="M2502,1877L2721,1796L2467,1413Z" fill="rgb(105,109,114)" stroke="rgb(105,109,114)" stroke-width="1.51"/><path d="M2876,734L2754,153L2239,320Z" fill="rgb(125,144,153)" stroke="rgb(125,144,153)" stroke-width="1.51"/><path d="M2754,153L2394,-77L2239,320Z" fill="rgb(103,106,106)" stroke="rgb(103,106,106)" stroke-width="1.51"/><path d="M1646,1503L1630,1964L2027,1831Z" fill="rgb(161,147,132)" stroke="rgb(161,147,132)" stroke-width="1.51"/><path d="M2027,1831L2187,2357L2502,1877Z" fill="rgb(144,142,151)" stroke="rgb(144,142,151)" stroke-width="1.51"/><path d="M1098,1540L1630,1964L1646,1503Z" fill="rgb(145,148,145)" stroke="rgb(145,148,145)" stroke-width="1.51"/><path d="M1606,-84L1433,116L1762,302Z" fill="rgb(136,135,125)" stroke="rgb(136,135,125)" stroke-width="1.51"/><path d="M1606,-84L1762,302L1964,76Z" fill="rgb(141,130,109)" stroke="rgb(141,130,109)" stroke-width="1.51"/><path d="M1403,654L975,986L1656,963Z" fill="rgb(216,204,176)" stroke="rgb(216,204,176)" stroke-width="1.51"/><path d="M1213,262L1010,717L1403,654Z" fill="rgb(179,216,234)" stroke="rgb(179,216,234)" stroke-width="1.51"/><path d="M2871,1011L3306,1030L2876,734Z" fill="rgb(153,146,134)" stroke="rgb(153,146,134)" stroke-width="1.51"/><path d="M2876,734L3295,515L2754,153Z" fill="rgb(105,144,171)" stroke="rgb(105,144,171)" stroke-width="1.51"/><path d="M3203,1522L3306,1030L2871,1011Z" fill="rgb(149,136,121)" stroke="rgb(149,136,121)" stroke-width="1.51"/><path d="M1010,717L975,986L1403,654Z" fill="rgb(199,210,205)" stroke="rgb(199,210,205)" stroke-width="1.51"/><path d="M1433,116L1213,262L1403,654Z" fill="rgb(158,179,186)" stroke="rgb(158,179,186)" stroke-width="1.51"/><path d="M975,986L1098,1540L1656,963Z" fill="rgb(212,191,154)" stroke="rgb(212,191,154)" stroke-width="1.51"/><path d="M1433,116L1299,0L1213,262Z" fill="rgb(124,143,149)" stroke="rgb(124,143,149)" stroke-width="1.51"/><path d="M2036,-499L1606,-84L1964,76Z" fill="rgb(129,113,86)" stroke="rgb(129,113,86)" stroke-width="1.51"/><path d="M2721,1796L3203,1522L2598,1294Z" fill="rgb(92,100,106)" stroke="rgb(92,100,106)" stroke-width="1.51"/><path d="M2394,-77L2036,-499L1964,76Z" fill="rgb(113,102,83)" stroke="rgb(113,102,83)" stroke-width="1.51"/><path d="M2754,153L2585,-166L2394,-77Z" fill="rgb(75,81,84)" stroke="rgb(75,81,84)" stroke-width="1.51"/><path d="M3161,-263L2585,-166L2754,153Z" fill="rgb(49,69,84)" stroke="rgb(49,69,84)" stroke-width="1.51"/><path d="M3306,1030L3295,515L2876,734Z" fill="rgb(142,155,166)" stroke="rgb(142,155,166)" stroke-width="1.51"/><path d="M1630,1964L1840,2226L2027,1831Z" fill="rgb(170,159,156)" stroke="rgb(170,159,156)" stroke-width="1.51"/><path d="M2502,1877L2884,2123L2721,1796Z" fill="rgb(94,115,141)" stroke="rgb(94,115,141)" stroke-width="1.51"/><path d="M1521,2211L1840,2226L1630,1964Z" fill="rgb(165,169,184)" stroke="rgb(165,169,184)" stroke-width="1.51"/><path d="M1606,-84L1299,0L1433,116Z" fill="rgb(115,121,119)" stroke="rgb(115,121,119)" stroke-width="1.51"/><path d="M1213,262L900,453L1010,717Z" fill="rgb(156,208,237)" stroke="rgb(156,208,237)" stroke-width="1.51"/><path d="M622,1272L861,1320L975,986Z" fill="rgb(183,180,162)" stroke="rgb(183,180,162)" stroke-width="1.51"/><path d="M975,986L861,1320L1098,1540Z" fill="rgb(181,184,176)" stroke="rgb(181,184,176)" stroke-width="1.51"/><path d="M1010,717L671,860L975,986Z" fill="rgb(191,204,202)" stroke="rgb(191,204,202)" stroke-width="1.51"/><path d="M845,12L900,453L1213,262Z" fill="rgb(118,168,196)" stroke="rgb(118,168,196)" stroke-width="1.51"/><path d="M2721,1796L3278,1824L3203,1522Z" fill="rgb(73,100,128)" stroke="rgb(73,100,128)" stroke-width="1.51"/><path d="M2187,2357L2884,2123L2502,1877Z" fill="rgb(115,133,162)" stroke="rgb(115,133,162)" stroke-width="1.51"/><path d="M1840,2226L2187,2357L2027,1831Z" fill="rgb(168,160,165)" stroke="rgb(168,160,165)" stroke-width="1.51"/><path d="M1009,2041L1630,1964L1098,1540Z" fill="rgb(137,161,183)" stroke="rgb(137,161,183)" stroke-width="1.51"/><path d="M1009,2041L1521,2211L1630,1964Z" fill="rgb(148,170,199)" stroke="rgb(148,170,199)" stroke-width="1.51"/><path d="M1840,2226L1789,2489L2187,2357Z" fill="rgb(176,165,167)" stroke="rgb(176,165,167)" stroke-width="1.51"/><path d="M3306,1030L3513,696L3295,515Z" fill="rgb(142,162,182)" stroke="rgb(142,162,182)" stroke-width="1.51"/><path d="M3295,515L3286,164L2754,153Z" fill="rgb(79,117,145)" stroke="rgb(79,117,145)" stroke-width="1.51"/><path d="M3593,893L3513,696L3306,1030Z" fill="rgb(156,161,171)" stroke="rgb(156,161,171)" stroke-width="1.51"/><path d="M3636,409L3286,164L3295,515Z" fill="rgb(89,139,180)" stroke="rgb(89,139,180)" stroke-width="1.51"/><path d="M3546,1606L3593,893L3306,1030Z" fill="rgb(156,147,144)" stroke="rgb(156,147,144)" stroke-width="1.51"/><path d="M2884,2123L3278,1824L2721,1796Z" fill="rgb(72,107,144)" stroke="rgb(72,107,144)" stroke-width="1.51"/><path d="M3546,1606L3306,1030L3203,1522Z" fill="rgb(118,124,135)" stroke="rgb(118,124,135)" stroke-width="1.51"/><path d="M2585,-166L2589,-414L2394,-77Z" fill="rgb(79,83,84)" stroke="rgb(79,83,84)" stroke-width="1.51"/><path d="M1606,-84L1137,-652L1299,0Z" fill="rgb(108,121,125)" stroke="rgb(108,121,125)" stroke-width="1.51"/><path d="M3161,-263L2589,-414L2585,-166Z" fill="rgb(55,72,84)" stroke="rgb(55,72,84)" stroke-width="1.51"/><path d="M900,453L671,860L1010,717Z" fill="rgb(169,206,224)" stroke="rgb(169,206,224)" stroke-width="1.51"/><path d="M2252,-555L2036,-499L2394,-77Z" fill="rgb(105,97,84)" stroke="rgb(105,97,84)" stroke-width="1.51"/><path d="M2589,-414L2252,-555L2394,-77Z" fill="rgb(89,89,84)" stroke="rgb(89,89,84)" stroke-width="1.51"/><path d="M3278,1824L3546,1606L3203,1522Z" fill="rgb(73,105,138)" stroke="rgb(73,105,138)" stroke-width="1.51"/><path d="M630,2045L1009,2041L1098,1540Z" fill="rgb(110,162,203)" stroke="rgb(110,162,203)" stroke-width="1.51"/><path d="M671,860L622,1272L975,986Z" fill="rgb(194,185,162)" stroke="rgb(194,185,162)" stroke-width="1.51"/><path d="M1521,2211L1789,2489L1840,2226Z" fill="rgb(168,169,183)" stroke="rgb(168,169,183)" stroke-width="1.51"/><path d="M1521,2211L1405,2770L1789,2489Z" fill="rgb(161,172,194)" stroke="rgb(161,172,194)" stroke-width="1.51"/><path d="M630,2045L1098,1540L861,1320Z" fill="rgb(107,145,169)" stroke="rgb(107,145,169)" stroke-width="1.51"/><path d="M3286,164L3161,-263L2754,153Z" fill="rgb(45,75,98)" stroke="rgb(45,75,98)" stroke-width="1.51"/><path d="M3513,696L3636,409L3295,515Z" fill="rgb(113,172,218)" stroke="rgb(113,172,218)" stroke-width="1.51"/><path d="M3880,755L3636,409L3513,696Z" fill="rgb(126,175,221)" stroke="rgb(126,175,221)" stroke-width="1.51"/><path d="M3880,755L3513,696L3593,893Z" fill="rgb(148,169,197)" stroke="rgb(148,169,197)" stroke-width="1.51"/><path d="M2589,-414L3210,-529L2252,-555Z" fill="rgb(65,76,84)" stroke="rgb(65,76,84)" stroke-width="1.51"/><path d="M3665,-256L3161,-263L3286,164Z" fill="rgb(39,80,113)" stroke="rgb(39,80,113)" stroke-width="1.51"/><path d="M1299,0L845,12L1213,262Z" fill="rgb(107,140,158)" stroke="rgb(107,140,158)" stroke-width="1.51"/><path d="M900,453L374,781L671,860Z" fill="rgb(154,185,199)" stroke="rgb(154,185,199)" stroke-width="1.51"/><path d="M1137,-652L845,12L1299,0Z" fill="rgb(93,125,143)" stroke="rgb(93,125,143)" stroke-width="1.51"/><path d="M3546,1606L4102,1252L3593,893Z" fill="rgb(147,147,161)" stroke="rgb(147,147,161)" stroke-width="1.51"/><path d="M3278,1824L3687,1713L3546,1606Z" fill="rgb(70,113,156)" stroke="rgb(70,113,156)" stroke-width="1.51"/><path d="M3374,2288L3687,1713L3278,1824Z" fill="rgb(65,123,178)" stroke="rgb(65,123,178)" stroke-width="1.51"/><path d="M1009,2041L1008,2259L1521,2211Z" fill="rgb(132,179,226)" stroke="rgb(132,179,226)" stroke-width="1.51"/><path d="M630,2045L1008,2259L1009,2041Z" fill="rgb(103,172,229)" stroke="rgb(103,172,229)" stroke-width="1.51"/><path d="M622,1272L630,2045L861,1320Z" fill="rgb(110,136,152)" stroke="rgb(110,136,152)" stroke-width="1.51"/><path d="M671,860L455,1285L622,1272Z" fill="rgb(172,161,138)" stroke="rgb(172,161,138)" stroke-width="1.51"/><path d="M245,913L455,1285L671,860Z" fill="rgb(166,157,134)" stroke="rgb(166,157,134)" stroke-width="1.51"/><path d="M2036,-499L1605,-661L1606,-84Z" fill="rgb(125,115,95)" stroke="rgb(125,115,95)" stroke-width="1.51"/><path d="M2252,-555L1605,-661L2036,-499Z" fill="rgb(127,110,83)" stroke="rgb(127,110,83)" stroke-width="1.51"/><path d="M4102,1252L3880,755L3593,893Z" fill="rgb(168,169,183)" stroke="rgb(168,169,183)" stroke-width="1.51"/><path d="M369,127L374,781L900,453Z" fill="rgb(113,165,194)" stroke="rgb(113,165,194)" stroke-width="1.51"/><path d="M2884,2123L3374,2288L3278,1824Z" fill="rgb(65,122,176)" stroke="rgb(65,122,176)" stroke-width="1.51"/><path d="M2187,2357L2769,2652L2884,2123Z" fill="rgb(105,130,167)" stroke="rgb(105,130,167)" stroke-width="1.51"/><path d="M2332,2839L2769,2652L2187,2357Z" fill="rgb(126,140,167)" stroke="rgb(126,140,167)" stroke-width="1.51"/><path d="M3196,2470L3374,2288L2884,2123Z" fill="rgb(63,126,185)" stroke="rgb(63,126,185)" stroke-width="1.51"/><path d="M3636,409L3804,233L3286,164Z" fill="rgb(73,128,174)" stroke="rgb(73,128,174)" stroke-width="1.51"/><path d="M3880,755L3804,233L3636,409Z" fill="rgb(99,167,224)" stroke="rgb(99,167,224)" stroke-width="1.51"/><path d="M2769,2652L3196,2470L2884,2123Z" fill="rgb(67,120,171)" stroke="rgb(67,120,171)" stroke-width="1.51"/><path d="M3161,-263L3210,-529L2589,-414Z" fill="rgb(43,70,90)" stroke="rgb(43,70,90)" stroke-width="1.51"/><path d="M2252,-555L3210,-529L1605,-661Z" fill="rgb(94,91,84)" stroke="rgb(94,91,84)" stroke-width="1.51"/><path d="M3643,-359L3210,-529L3161,-263Z" fill="rgb(39,79,111)" stroke="rgb(39,79,111)" stroke-width="1.51"/><path d="M498,2041L630,2045L622,1272Z" fill="rgb(85,127,158)" stroke="rgb(85,127,158)" stroke-width="1.51"/><path d="M2769,2652L3315,2752L3196,2470Z" fill="rgb(64,124,180)" stroke="rgb(64,124,180)" stroke-width="1.51"/><path d="M1789,2489L2332,2839L2187,2357Z" fill="rgb(160,156,167)" stroke="rgb(160,156,167)" stroke-width="1.51"/><path d="M1405,2770L2332,2839L1789,2489Z" fill="rgb(175,167,173)" stroke="rgb(175,167,173)" stroke-width="1.51"/><path d="M374,781L245,913L671,860Z" fill="rgb(151,159,154)" stroke="rgb(151,159,154)" stroke-width="1.51"/><path d="M455,1285L498,2041L622,1272Z" fill="rgb(99,121,134)" stroke="rgb(99,121,134)" stroke-width="1.51"/><path d="M32,700L245,913L374,781Z" fill="rgb(130,140,140)" stroke="rgb(130,140,140)" stroke-width="1.51"/><path d="M1008,2259L1139,2604L1521,2211Z" fill="rgb(136,178,222)" stroke="rgb(136,178,222)" stroke-width="1.51"/><path d="M706,2633L1139,2604L1008,2259Z" fill="rgb(108,182,242)" stroke="rgb(108,182,242)" stroke-width="1.51"/><path d="M845,12L369,127L900,453Z" fill="rgb(89,136,163)" stroke="rgb(89,136,163)" stroke-width="1.51"/><path d="M1605,-661L1137,-652L1606,-84Z" fill="rgb(114,119,117)" stroke="rgb(114,119,117)" stroke-width="1.51"/><path d="M1139,2604L1405,2770L1521,2211Z" fill="rgb(146,175,211)" stroke="rgb(146,175,211)" stroke-width="1.51"/><path d="M-51,1905L498,2041L455,1285Z" fill="rgb(64,99,125)" stroke="rgb(64,99,125)" stroke-width="1.51"/><path d="M630,2045L581,2184L1008,2259Z" fill="rgb(91,161,219)" stroke="rgb(91,161,219)" stroke-width="1.51"/><path d="M3804,233L3665,-256L3286,164Z" fill="rgb(40,93,135)" stroke="rgb(40,93,135)" stroke-width="1.51"/><path d="M194,-130L369,127L845,12Z" fill="rgb(46,84,106)" stroke="rgb(46,84,106)" stroke-width="1.51"/><path d="M509,2112L581,2184L630,2045Z" fill="rgb(78,143,196)" stroke="rgb(78,143,196)" stroke-width="1.51"/><path d="M3880,755L4427,313L3804,233Z" fill="rgb(93,164,223)" stroke="rgb(93,164,223)" stroke-width="1.51"/><path d="M3845,-376L3643,-359L3665,-256Z" fill="rgb(28,90,135)" stroke="rgb(28,90,135)" stroke-width="1.51"/><path d="M3687,1713L4102,1252L3546,1606Z" fill="rgb(93,124,163)" stroke="rgb(93,124,163)" stroke-width="1.51"/><path d="M4075,1672L4102,1252L3687,1713Z" fill="rgb(88,124,167)" stroke="rgb(88,124,167)" stroke-width="1.51"/><path d="M498,2041L509,2112L630,2045Z" fill="rgb(77,137,187)" stroke="rgb(77,137,187)" stroke-width="1.51"/><path d="M63,2162L509,2112L498,2041Z" fill="rgb(60,122,173)" stroke="rgb(60,122,173)" stroke-width="1.51"/><path d="M3803,-172L3665,-256L3804,233Z" fill="rgb(26,91,137)" stroke="rgb(26,91,137)" stroke-width="1.51"/><path d="M3665,-256L3643,-359L3161,-263Z" fill="rgb(36,83,121)" stroke="rgb(36,83,121)" stroke-width="1.51"/><path d="M3845,-376L3803,-172L4244,-65Z" fill="rgb(22,93,142)" stroke="rgb(22,93,142)" stroke-width="1.51"/><path d="M4069,1907L4075,1672L3687,1713Z" fill="rgb(63,125,183)" stroke="rgb(63,125,183)" stroke-width="1.51"/><path d="M4069,1907L3687,1713L4052,2233Z" fill="rgb(52,135,206)" stroke="rgb(52,135,206)" stroke-width="1.51"/><path d="M3196,2470L3315,2752L3374,2288Z" fill="rgb(59,130,194)" stroke="rgb(59,130,194)" stroke-width="1.51"/><path d="M2332,2839L3315,2752L2769,2652Z" fill="rgb(80,121,167)" stroke="rgb(80,121,167)" stroke-width="1.51"/><path d="M245,913L-186,1222L455,1285Z" fill="rgb(136,123,99)" stroke="rgb(136,123,99)" stroke-width="1.51"/><path d="M369,127L32,700L374,781Z" fill="rgb(102,151,179)" stroke="rgb(102,151,179)" stroke-width="1.51"/><path d="M4316,1673L4350,1059L4102,1252Z" fill="rgb(133,143,167)" stroke="rgb(133,143,167)" stroke-width="1.51"/><path d="M4052,2233L3687,1713L3374,2288Z" fill="rgb(48,137,211)" stroke="rgb(48,137,211)" stroke-width="1.51"/><path d="M3803,-172L3845,-376L3665,-256Z" fill="rgb(26,91,138)" stroke="rgb(26,91,138)" stroke-width="1.51"/><path d="M3643,-359L3845,-376L3210,-529Z" fill="rgb(34,86,125)" stroke="rgb(34,86,125)" stroke-width="1.51"/><path d="M4244,-65L3803,-172L3804,233Z" fill="rgb(22,93,142)" stroke="rgb(22,93,142)" stroke-width="1.51"/><path d="M123,2600L706,2633L581,2184Z" fill="rgb(67,135,190)" stroke="rgb(67,135,190)" stroke-width="1.51"/><path d="M581,2184L706,2633L1008,2259Z" fill="rgb(93,164,222)" stroke="rgb(93,164,222)" stroke-width="1.51"/><path d="M1139,2604L706,2633L1405,2770Z" fill="rgb(123,181,233)" stroke="rgb(123,181,233)" stroke-width="1.51"/><path d="M4102,1252L4350,1059L3880,755Z" fill="rgb(173,167,175)" stroke="rgb(173,167,175)" stroke-width="1.51"/><path d="M4316,1673L4102,1252L4075,1672Z" fill="rgb(91,125,167)" stroke="rgb(91,125,167)" stroke-width="1.51"/><path d="M1137,-652L619,-643L845,12Z" fill="rgb(75,119,144)" stroke="rgb(75,119,144)" stroke-width="1.51"/><path d="M369,127L-84,131L32,700Z" fill="rgb(60,102,125)" stroke="rgb(60,102,125)" stroke-width="1.51"/><path d="M-80,-706L619,-643L1137,-652Z" fill="rgb(52,91,114)" stroke="rgb(52,91,114)" stroke-width="1.51"/><path d="M619,-643L194,-130L845,12Z" fill="rgb(52,91,113)" stroke="rgb(52,91,113)" stroke-width="1.51"/><path d="M4350,1059L4396,726L3880,755Z" fill="rgb(156,173,200)" stroke="rgb(156,173,200)" stroke-width="1.51"/><path d="M4265,1895L4316,1673L4075,1672Z" fill="rgb(64,124,181)" stroke="rgb(64,124,181)" stroke-width="1.51"/><path d="M4350,1059L4316,1673L4396,726Z" fill="rgb(166,159,167)" stroke="rgb(166,159,167)" stroke-width="1.51"/><path d="M4265,1895L4075,1672L4069,1907Z" fill="rgb(60,128,190)" stroke="rgb(60,128,190)" stroke-width="1.51"/><path d="M3530,2800L4052,2233L3374,2288Z" fill="rgb(42,140,218)" stroke="rgb(42,140,218)" stroke-width="1.51"/><path d="M3315,2752L3530,2800L3374,2288Z" fill="rgb(55,133,202)" stroke="rgb(55,133,202)" stroke-width="1.51"/><path d="M2332,2839L3530,2800L3315,2752Z" fill="rgb(65,123,178)" stroke="rgb(65,123,178)" stroke-width="1.51"/><path d="M4052,2233L4265,1895L4069,1907Z" fill="rgb(47,138,213)" stroke="rgb(47,138,213)" stroke-width="1.51"/><path d="M-616,873L-186,1222L32,700Z" fill="rgb(122,116,102)" stroke="rgb(122,116,102)" stroke-width="1.51"/><path d="M32,700L-186,1222L245,913Z" fill="rgb(125,119,103)" stroke="rgb(125,119,103)" stroke-width="1.51"/><path d="M509,2112L123,2600L581,2184Z" fill="rgb(62,129,184)" stroke="rgb(62,129,184)" stroke-width="1.51"/><path d="M4427,313L4244,-65L3804,233Z" fill="rgb(51,118,171)" stroke="rgb(51,118,171)" stroke-width="1.51"/><path d="M4396,726L4427,313L3880,755Z" fill="rgb(121,181,235)" stroke="rgb(121,181,235)" stroke-width="1.51"/><path d="M-218,1618L-51,1905L455,1285Z" fill="rgb(52,74,90)" stroke="rgb(52,74,90)" stroke-width="1.51"/><path d="M194,-130L-84,131L369,127Z" fill="rgb(29,64,83)" stroke="rgb(29,64,83)" stroke-width="1.51"/><path d="M-129,-244L-84,131L194,-130Z" fill="rgb(11,45,63)" stroke="rgb(11,45,63)" stroke-width="1.51"/><path d="M-51,1905L63,2162L498,2041Z" fill="rgb(47,102,145)" stroke="rgb(47,102,145)" stroke-width="1.51"/><path d="M619,-643L135,-369L194,-130Z" fill="rgb(34,71,91)" stroke="rgb(34,71,91)" stroke-width="1.51"/><path d="M-328,2470L123,2600L63,2162Z" fill="rgb(22,93,142)" stroke="rgb(22,93,142)" stroke-width="1.51"/><path d="M-186,1222L-218,1618L455,1285Z" fill="rgb(88,89,86)" stroke="rgb(88,89,86)" stroke-width="1.51"/><path d="M4052,2233L4190,2328L4265,1895Z" fill="rgb(28,145,230)" stroke="rgb(28,145,230)" stroke-width="1.51"/><path d="M4265,1895L4295,2699L4316,1673Z" fill="rgb(38,142,222)" stroke="rgb(38,142,222)" stroke-width="1.51"/><path d="M4108,2813L4190,2328L4052,2233Z" fill="rgb(26,146,231)" stroke="rgb(26,146,231)" stroke-width="1.51"/><path d="M-84,131L-291,326L32,700Z" fill="rgb(61,102,126)" stroke="rgb(61,102,126)" stroke-width="1.51"/><path d="M-186,1222L-391,1624L-218,1618Z" fill="rgb(68,78,84)" stroke="rgb(68,78,84)" stroke-width="1.51"/><path d="M-651,-219L-291,326L-84,131Z" fill="rgb(22,56,75)" stroke="rgb(22,56,75)" stroke-width="1.51"/><path d="M-80,-706L-129,-244L135,-369Z" fill="rgb(11,45,63)" stroke="rgb(11,45,63)" stroke-width="1.51"/><path d="M135,-369L-129,-244L194,-130Z" fill="rgb(16,50,69)" stroke="rgb(16,50,69)" stroke-width="1.51"/><path d="M-328,2470L63,2162L-51,1905Z" fill="rgb(22,93,142)" stroke="rgb(22,93,142)" stroke-width="1.51"/><path d="M63,2162L123,2600L509,2112Z" fill="rgb(46,114,166)" stroke="rgb(46,114,166)" stroke-width="1.51"/><path d="M706,2633L-202,2723L1405,2770Z" fill="rgb(81,151,208)" stroke="rgb(81,151,208)" stroke-width="1.51"/><path d="M-218,1618L-398,1820L-51,1905Z" fill="rgb(42,75,101)" stroke="rgb(42,75,101)" stroke-width="1.51"/><path d="M-672,1057L-391,1624L-186,1222Z" fill="rgb(97,93,84)" stroke="rgb(97,93,84)" stroke-width="1.51"/><path d="M-391,1624L-398,1820L-218,1618Z" fill="rgb(43,71,91)" stroke="rgb(43,71,91)" stroke-width="1.51"/><path d="M4190,2328L4295,2699L4265,1895Z" fill="rgb(26,146,231)" stroke="rgb(26,146,231)" stroke-width="1.51"/><path d="M3530,2800L4108,2813L4052,2233Z" fill="rgb(26,146,231)" stroke="rgb(26,146,231)" stroke-width="1.51"/><path d="M2332,2839L4108,2813L3530,2800Z" fill="rgb(57,131,196)" stroke="rgb(57,131,196)" stroke-width="1.51"/><path d="M4108,2813L4295,2699L4190,2328Z" fill="rgb(26,146,231)" stroke="rgb(26,146,231)" stroke-width="1.51"/><path d="M4316,1673L4295,2699L4396,726Z" fill="rgb(65,122,176)" stroke="rgb(65,122,176)" stroke-width="1.51"/><path d="M4396,726L4295,2699L4427,313Z" fill="rgb(149,151,167)" stroke="rgb(149,151,167)" stroke-width="1.51"/><path d="M-291,326L-616,873L32,700Z" fill="rgb(95,125,141)" stroke="rgb(95,125,141)" stroke-width="1.51"/><path d="M-391,1624L-672,1057L-398,1820Z" fill="rgb(66,77,84)" stroke="rgb(66,77,84)" stroke-width="1.51"/><path d="M-651,-219L-616,873L-291,326Z" fill="rgb(54,93,116)" stroke="rgb(54,93,116)" stroke-width="1.51"/><path d="M4427,313L4380,-682L4244,-65Z" fill="rgb(22,93,142)" stroke="rgb(22,93,142)" stroke-width="1.51"/><path d="M4244,-65L4380,-682L3845,-376Z" fill="rgb(22,93,142)" stroke="rgb(22,93,142)" stroke-width="1.51"/><path d="M3845,-376L4380,-682L3210,-529Z" fill="rgb(23,92,141)" stroke="rgb(23,92,141)" stroke-width="1.51"/><path d="M3210,-529L4380,-682L1605,-661Z" fill="rgb(43,72,95)" stroke="rgb(43,72,95)" stroke-width="1.51"/><path d="M619,-643L-80,-706L135,-369Z" fill="rgb(28,63,83)" stroke="rgb(28,63,83)" stroke-width="1.51"/><path d="M-129,-244L-651,-219L-84,131Z" fill="rgb(11,45,63)" stroke="rgb(11,45,63)" stroke-width="1.51"/><path d="M1605,-661L-80,-706L1137,-652Z" fill="rgb(77,120,146)" stroke="rgb(77,120,146)" stroke-width="1.51"/><path d="M4380,-682L-80,-706L1605,-661Z" fill="rgb(127,110,83)" stroke="rgb(127,110,83)" stroke-width="1.51"/><path d="M-616,873L-672,1057L-186,1222Z" fill="rgb(129,113,86)" stroke="rgb(129,113,86)" stroke-width="1.51"/><path d="M-562,2629L-328,2470L-398,1820Z" fill="rgb(22,93,142)" stroke="rgb(22,93,142)" stroke-width="1.51"/><path d="M-398,1820L-328,2470L-51,1905Z" fill="rgb(30,88,132)" stroke="rgb(30,88,132)" stroke-width="1.51"/><path d="M-616,873L-651,-219L-672,1057Z" fill="rgb(87,126,149)" stroke="rgb(87,126,149)" stroke-width="1.51"/><path d="M-80,-706L-383,-448L-129,-244Z" fill="rgb(11,45,63)" stroke="rgb(11,45,63)" stroke-width="1.51"/><path d="M-328,2470L-202,2723L123,2600Z" fill="rgb(22,93,142)" stroke="rgb(22,93,142)" stroke-width="1.51"/><path d="M123,2600L-202,2723L706,2633Z" fill="rgb(44,112,164)" stroke="rgb(44,112,164)" stroke-width="1.51"/><path d="M1405,2770L-202,2723L2332,2839Z" fill="rgb(132,179,226)" stroke="rgb(132,179,226)" stroke-width="1.51"/><path d="M-383,-448L-651,-219L-129,-244Z" fill="rgb(11,45,63)" stroke="rgb(11,45,63)" stroke-width="1.51"/><path d="M-328,2470L-562,2629L-202,2723Z" fill="rgb(22,93,142)" stroke="rgb(22,93,142)" stroke-width="1.51"/><path d="M-672,1057L-562,2629L-398,1820Z" fill="rgb(41,77,107)" stroke="rgb(41,77,107)" stroke-width="1.51"/></svg>