<svg id="svg" version="1.1" xmlns="http://www.w3.org/2000/svg" xmlns:xlink="http://www.w3.org/1999/xlink" width="400" height="114.46808510638297" viewBox="0, 0, 400,114.46808510638297"><g id="svgg"><path id="path0" d="M365.833 21.667 C 365.833 21.758,365.533 21.833,365.167 21.833 C 364.685 21.833,364.500 21.903,364.500 22.083 C 364.500 22.239,364.343 22.333,364.083 22.333 C 363.854 22.333,363.667 22.408,363.667 22.500 C 363.667 22.592,363.479 22.667,363.250 22.667 C 362.991 22.667,362.833 22.761,362.833 22.917 C 362.833 23.054,362.721 23.167,362.583 23.167 C 362.446 23.167,362.333 23.279,362.333 23.417 C 362.333 23.557,362.184 23.667,361.992 23.667 C 361.587 23.667,360.167 25.014,360.167 25.398 C 360.167 25.546,360.092 25.667,360.000 25.667 C 359.908 25.667,359.833 25.779,359.833 25.917 C 359.833 26.054,359.721 26.167,359.583 26.167 C 359.428 26.167,359.333 26.324,359.333 26.583 C 359.333 26.813,359.258 27.000,359.167 27.000 C 359.075 27.000,359.000 27.300,359.000 27.667 C 359.000 28.148,358.931 28.333,358.750 28.333 C 358.538 28.333,358.500 28.750,358.500 31.083 C 358.500 33.417,358.538 33.833,358.750 33.833 C 358.925 33.833,359.000 34.009,359.000 34.417 C 359.000 34.737,359.075 35.000,359.167 35.000 C 359.258 35.000,359.333 35.188,359.333 35.417 C 359.333 35.676,359.428 35.833,359.583 35.833 C 359.721 35.833,359.833 35.946,359.833 36.083 C 359.833 36.221,359.908 36.333,360.000 36.333 C 360.092 36.333,360.167 36.486,360.167 36.672 C 360.167 36.858,360.279 37.054,360.417 37.106 C 360.554 37.159,360.667 37.275,360.667 37.363 C 360.667 37.579,361.099 38.000,361.321 38.000 C 361.420 38.000,361.500 38.112,361.500 38.250 C 361.500 38.406,361.657 38.500,361.917 38.500 C 362.146 38.500,362.333 38.575,362.333 38.667 C 362.333 38.758,362.446 38.833,362.583 38.833 C 362.721 38.833,362.833 38.946,362.833 39.083 C 362.833 39.239,362.991 39.333,363.250 39.333 C 363.479 39.333,363.667 39.408,363.667 39.500 C 363.667 39.592,363.854 39.667,364.083 39.667 C 364.343 39.667,364.500 39.761,364.500 39.917 C 364.500 40.096,364.683 40.167,365.149 40.167 C 365.572 40.167,365.831 40.254,365.894 40.417 C 365.973 40.624,366.439 40.667,368.650 40.667 C 370.792 40.667,371.358 40.618,371.560 40.417 C 371.697 40.279,372.077 40.167,372.405 40.167 C 372.823 40.167,373.000 40.092,373.000 39.917 C 373.000 39.761,373.157 39.667,373.417 39.667 C 373.646 39.667,373.833 39.592,373.833 39.500 C 373.833 39.408,374.021 39.333,374.250 39.333 C 374.509 39.333,374.667 39.239,374.667 39.083 C 374.667 38.946,374.779 38.833,374.917 38.833 C 375.054 38.833,375.167 38.758,375.167 38.667 C 375.167 38.575,375.287 38.500,375.435 38.500 C 375.820 38.500,377.167 37.080,377.167 36.675 C 377.167 36.482,377.276 36.333,377.417 36.333 C 377.554 36.333,377.667 36.221,377.667 36.083 C 377.667 35.946,377.742 35.833,377.833 35.833 C 377.925 35.833,378.000 35.646,378.000 35.417 C 378.000 35.157,378.094 35.000,378.250 35.000 C 378.423 35.000,378.500 34.826,378.500 34.434 C 378.500 34.086,378.596 33.832,378.750 33.773 C 378.958 33.693,379.000 33.227,379.000 31.005 C 379.000 28.741,378.962 28.333,378.750 28.333 C 378.569 28.333,378.500 28.148,378.500 27.667 C 378.500 27.185,378.431 27.000,378.250 27.000 C 378.094 27.000,378.000 26.843,378.000 26.583 C 378.000 26.354,377.925 26.167,377.833 26.167 C 377.742 26.167,377.667 26.054,377.667 25.917 C 377.667 25.779,377.554 25.667,377.417 25.667 C 377.275 25.667,377.167 25.517,377.167 25.321 C 377.167 24.952,376.806 24.500,376.512 24.500 C 376.414 24.500,376.333 24.420,376.333 24.321 C 376.333 24.027,375.881 23.667,375.512 23.667 C 375.316 23.667,375.167 23.558,375.167 23.417 C 375.167 23.279,375.062 23.167,374.934 23.167 C 374.807 23.167,374.659 23.054,374.606 22.917 C 374.554 22.779,374.358 22.667,374.172 22.667 C 373.986 22.667,373.833 22.592,373.833 22.500 C 373.833 22.408,373.646 22.333,373.417 22.333 C 373.157 22.333,373.000 22.239,373.000 22.083 C 373.000 21.903,372.815 21.833,372.333 21.833 C 371.967 21.833,371.667 21.758,371.667 21.667 C 371.667 21.562,370.583 21.500,368.750 21.500 C 366.917 21.500,365.833 21.562,365.833 21.667 " stroke="none" fill="#fcd43c" fill-rule="evenodd"></path><path id="path1" d="M346.167 3.833 C 346.167 3.925,345.902 4.000,345.578 4.000 C 345.209 4.000,344.954 4.093,344.894 4.250 C 344.841 4.387,344.618 4.500,344.399 4.500 C 344.179 4.500,344.000 4.575,344.000 4.667 C 344.000 4.758,343.861 4.833,343.690 4.833 C 343.520 4.833,343.243 5.016,343.075 5.240 C 342.907 5.464,342.596 5.690,342.385 5.743 C 342.173 5.796,342.000 5.913,342.000 6.003 C 342.000 6.093,341.887 6.167,341.750 6.167 C 341.613 6.167,341.500 6.279,341.500 6.417 C 341.500 6.554,341.430 6.667,341.345 6.667 C 341.259 6.667,341.137 6.832,341.073 7.034 C 340.936 7.463,340.599 7.833,340.345 7.833 C 340.247 7.833,340.167 7.946,340.167 8.083 C 340.167 8.221,340.092 8.333,340.000 8.333 C 339.908 8.333,339.833 8.521,339.833 8.750 C 339.833 9.009,339.739 9.167,339.583 9.167 C 339.403 9.167,339.333 9.352,339.333 9.833 C 339.333 10.200,339.258 10.500,339.167 10.500 C 339.063 10.500,339.000 11.497,339.000 13.157 C 339.000 14.748,339.067 15.855,339.167 15.917 C 339.258 15.973,339.333 16.278,339.333 16.593 C 339.333 16.992,339.410 17.167,339.583 17.167 C 339.739 17.167,339.833 17.324,339.833 17.583 C 339.833 17.813,339.908 18.000,340.000 18.000 C 340.092 18.000,340.167 18.112,340.167 18.250 C 340.167 18.387,340.247 18.500,340.345 18.500 C 340.599 18.500,340.936 18.870,341.073 19.299 C 341.137 19.501,341.259 19.667,341.345 19.667 C 341.430 19.667,341.500 19.779,341.500 19.917 C 341.500 20.054,341.613 20.167,341.750 20.167 C 341.887 20.167,342.000 20.237,342.000 20.322 C 342.000 20.408,342.165 20.530,342.367 20.594 C 342.796 20.730,343.167 21.067,343.167 21.321 C 343.167 21.420,343.354 21.500,343.583 21.500 C 343.813 21.500,344.000 21.575,344.000 21.667 C 344.000 21.758,344.179 21.833,344.399 21.833 C 344.618 21.833,344.841 21.946,344.894 22.083 C 344.954 22.240,345.209 22.333,345.578 22.333 C 345.902 22.333,346.167 22.408,346.167 22.500 C 346.167 22.605,347.333 22.667,349.333 22.667 C 351.333 22.667,352.500 22.605,352.500 22.500 C 352.500 22.408,352.800 22.333,353.167 22.333 C 353.648 22.333,353.833 22.264,353.833 22.083 C 353.833 21.928,353.991 21.833,354.250 21.833 C 354.479 21.833,354.667 21.758,354.667 21.667 C 354.667 21.575,354.854 21.500,355.083 21.500 C 355.343 21.500,355.500 21.406,355.500 21.250 C 355.500 21.112,355.613 21.000,355.750 21.000 C 355.887 21.000,356.000 20.942,356.000 20.871 C 356.000 20.800,356.262 20.601,356.583 20.428 C 356.904 20.256,357.167 20.013,357.167 19.890 C 357.167 19.767,357.279 19.667,357.417 19.667 C 357.558 19.667,357.667 19.517,357.667 19.321 C 357.667 18.952,358.027 18.500,358.321 18.500 C 358.420 18.500,358.500 18.387,358.500 18.250 C 358.500 18.112,358.574 18.000,358.663 18.000 C 358.753 18.000,358.874 17.813,358.932 17.583 C 358.989 17.354,359.103 17.167,359.185 17.167 C 359.266 17.167,359.333 16.912,359.333 16.601 C 359.333 16.252,359.429 15.999,359.583 15.940 C 359.791 15.860,359.833 15.393,359.833 13.172 C 359.833 10.908,359.795 10.500,359.583 10.500 C 359.403 10.500,359.333 10.315,359.333 9.833 C 359.333 9.467,359.266 9.167,359.185 9.167 C 359.103 9.167,358.989 8.979,358.932 8.750 C 358.874 8.521,358.753 8.333,358.663 8.333 C 358.574 8.333,358.500 8.221,358.500 8.083 C 358.500 7.946,358.420 7.833,358.321 7.833 C 358.027 7.833,357.667 7.381,357.667 7.012 C 357.667 6.816,357.558 6.667,357.417 6.667 C 357.279 6.667,357.167 6.566,357.167 6.443 C 357.167 6.320,356.904 6.078,356.583 5.905 C 356.262 5.732,356.000 5.533,356.000 5.462 C 356.000 5.391,355.887 5.333,355.750 5.333 C 355.613 5.333,355.500 5.221,355.500 5.083 C 355.500 4.928,355.343 4.833,355.083 4.833 C 354.854 4.833,354.667 4.758,354.667 4.667 C 354.667 4.575,354.479 4.500,354.250 4.500 C 353.991 4.500,353.833 4.406,353.833 4.250 C 353.833 4.069,353.648 4.000,353.167 4.000 C 352.800 4.000,352.500 3.925,352.500 3.833 C 352.500 3.728,351.333 3.667,349.333 3.667 C 347.333 3.667,346.167 3.728,346.167 3.833 " stroke="none" fill="#336c9b" fill-rule="evenodd"></path><path id="path2" d="M300.833 82.097 C 300.604 82.224,300.285 82.330,300.125 82.331 C 299.965 82.332,299.833 82.408,299.833 82.500 C 299.833 82.592,299.721 82.667,299.583 82.667 C 299.446 82.667,299.333 82.779,299.333 82.917 C 299.333 83.058,299.184 83.167,298.988 83.167 C 298.619 83.167,298.167 83.527,298.167 83.821 C 298.167 83.920,298.082 84.000,297.978 84.000 C 297.731 84.000,297.167 84.655,297.167 84.942 C 297.167 85.066,297.092 85.167,297.000 85.167 C 296.908 85.167,296.833 85.392,296.833 85.667 C 296.833 86.000,296.750 86.167,296.583 86.167 C 296.374 86.167,296.333 86.519,296.333 88.339 C 296.333 90.115,296.379 90.528,296.583 90.606 C 296.721 90.659,296.833 90.841,296.833 91.011 C 296.833 91.432,297.697 92.833,297.957 92.833 C 298.072 92.833,298.167 92.914,298.167 93.012 C 298.167 93.306,298.619 93.667,298.988 93.667 C 299.184 93.667,299.333 93.775,299.333 93.917 C 299.333 94.054,299.446 94.167,299.583 94.167 C 299.721 94.167,299.833 94.242,299.833 94.333 C 299.833 94.425,300.088 94.500,300.399 94.500 C 300.748 94.500,301.001 94.596,301.060 94.750 C 301.140 94.957,301.588 95.000,303.661 95.000 C 305.777 95.000,306.167 94.961,306.167 94.750 C 306.167 94.575,306.343 94.500,306.750 94.500 C 307.071 94.500,307.333 94.425,307.333 94.333 C 307.333 94.242,307.446 94.167,307.583 94.167 C 307.721 94.167,307.833 94.054,307.833 93.917 C 307.833 93.776,307.982 93.667,308.175 93.667 C 308.522 93.667,310.000 92.343,310.000 92.032 C 310.000 91.803,310.550 90.765,310.708 90.694 C 310.891 90.613,310.863 86.167,310.680 86.167 C 310.596 86.167,310.477 85.942,310.417 85.667 C 310.356 85.392,310.238 85.167,310.153 85.167 C 310.069 85.167,310.000 85.027,310.000 84.857 C 310.000 84.686,309.813 84.406,309.583 84.234 C 309.354 84.062,309.167 83.826,309.167 83.710 C 309.167 83.595,309.054 83.500,308.917 83.500 C 308.779 83.500,308.667 83.425,308.667 83.333 C 308.667 83.242,308.479 83.167,308.250 83.167 C 307.991 83.167,307.833 83.072,307.833 82.917 C 307.833 82.779,307.721 82.667,307.583 82.667 C 307.446 82.667,307.333 82.600,307.333 82.519 C 307.333 82.437,307.071 82.321,306.750 82.261 C 306.429 82.201,306.167 82.080,306.167 81.992 C 306.167 81.728,301.327 81.823,300.833 82.097 " stroke="none" fill="#646464" fill-rule="evenodd"></path><path id="path3" d="M5.333 60.750 C 5.333 89.898,5.362 93.667,5.583 93.667 C 5.721 93.667,5.833 93.779,5.833 93.917 C 5.833 94.134,6.620 94.167,11.917 94.167 C 17.213 94.167,18.000 94.134,18.000 93.917 C 18.000 93.779,18.112 93.667,18.250 93.667 C 18.470 93.667,18.500 91.972,18.500 79.417 L 18.500 65.167 19.333 65.167 C 19.963 65.167,20.167 65.228,20.167 65.417 C 20.167 65.554,20.279 65.667,20.417 65.667 C 20.597 65.667,20.667 65.852,20.667 66.333 C 20.667 66.700,20.742 67.000,20.833 67.000 C 20.925 67.000,21.000 67.152,21.000 67.339 C 21.000 67.525,21.112 67.720,21.250 67.773 C 21.402 67.831,21.500 68.084,21.500 68.417 C 21.500 68.750,21.598 69.002,21.750 69.060 C 21.887 69.113,22.000 69.309,22.000 69.495 C 22.000 69.681,22.075 69.833,22.167 69.833 C 22.258 69.833,22.333 70.023,22.333 70.255 C 22.333 70.487,22.446 70.720,22.583 70.773 C 22.721 70.826,22.833 71.048,22.833 71.268 C 22.833 71.487,22.908 71.667,23.000 71.667 C 23.092 71.667,23.167 71.854,23.167 72.083 C 23.167 72.343,23.261 72.500,23.417 72.500 C 23.572 72.500,23.667 72.657,23.667 72.917 C 23.667 73.146,23.742 73.333,23.833 73.333 C 23.925 73.333,24.000 73.521,24.000 73.750 C 24.000 74.009,24.094 74.167,24.250 74.167 C 24.389 74.167,24.500 74.315,24.500 74.500 C 24.500 74.683,24.575 74.833,24.667 74.833 C 24.758 74.833,24.833 74.948,24.833 75.089 C 24.833 75.229,24.946 75.387,25.083 75.440 C 25.221 75.492,25.333 75.683,25.333 75.863 C 25.333 76.043,25.427 76.295,25.542 76.423 C 26.036 76.974,26.167 77.163,26.167 77.326 C 26.167 77.422,26.279 77.500,26.417 77.500 C 26.554 77.500,26.667 77.598,26.667 77.717 C 26.667 78.099,27.076 78.831,27.292 78.832 C 27.406 78.833,27.500 78.946,27.500 79.083 C 27.500 79.221,27.575 79.333,27.667 79.333 C 27.758 79.333,27.833 79.473,27.833 79.643 C 27.833 79.814,28.021 80.094,28.250 80.266 C 28.479 80.438,28.667 80.714,28.667 80.878 C 28.667 81.043,28.779 81.220,28.917 81.273 C 29.054 81.326,29.167 81.441,29.167 81.530 C 29.167 81.746,29.599 82.167,29.821 82.167 C 29.920 82.167,30.000 82.279,30.000 82.417 C 30.000 82.554,30.113 82.667,30.250 82.667 C 30.394 82.667,30.500 82.817,30.500 83.022 C 30.500 83.217,30.762 83.625,31.083 83.927 C 31.404 84.230,31.667 84.558,31.667 84.655 C 31.667 84.753,31.747 84.833,31.845 84.833 C 32.076 84.833,32.500 85.257,32.500 85.488 C 32.500 85.586,32.580 85.667,32.679 85.667 C 32.909 85.667,33.333 86.091,33.333 86.321 C 33.333 86.420,33.446 86.500,33.583 86.500 C 33.721 86.500,33.833 86.575,33.833 86.667 C 33.833 86.758,33.946 86.833,34.083 86.833 C 34.221 86.833,34.333 86.946,34.333 87.083 C 34.333 87.221,34.408 87.333,34.500 87.333 C 34.592 87.333,34.667 87.446,34.667 87.583 C 34.667 87.721,34.745 87.833,34.841 87.833 C 34.937 87.833,35.203 88.021,35.432 88.250 C 35.661 88.479,35.958 88.667,36.091 88.667 C 36.224 88.667,36.333 88.742,36.333 88.833 C 36.333 88.925,36.446 89.000,36.583 89.000 C 36.721 89.000,36.833 89.085,36.833 89.190 C 36.833 89.470,37.362 89.822,37.792 89.828 C 37.998 89.831,38.167 89.914,38.167 90.012 C 38.167 90.306,38.619 90.667,38.988 90.667 C 39.184 90.667,39.333 90.775,39.333 90.917 C 39.333 91.054,39.446 91.167,39.583 91.167 C 39.721 91.167,39.833 91.279,39.833 91.417 C 39.833 91.557,39.982 91.667,40.174 91.667 C 40.361 91.667,40.717 91.854,40.964 92.083 C 41.211 92.313,41.545 92.500,41.707 92.500 C 41.868 92.500,42.000 92.575,42.000 92.667 C 42.000 92.758,42.188 92.833,42.417 92.833 C 42.676 92.833,42.833 92.928,42.833 93.083 C 42.833 93.239,42.991 93.333,43.250 93.333 C 43.479 93.333,43.667 93.408,43.667 93.500 C 43.667 93.592,43.854 93.667,44.083 93.667 C 44.343 93.667,44.500 93.761,44.500 93.917 C 44.500 94.072,44.657 94.167,44.917 94.167 C 45.146 94.167,45.333 94.242,45.333 94.333 C 45.333 94.425,45.438 94.500,45.566 94.500 C 45.693 94.500,45.841 94.612,45.894 94.750 C 45.950 94.896,46.199 95.000,46.495 95.000 C 46.773 95.000,47.000 95.074,47.000 95.163 C 47.000 95.253,47.188 95.374,47.417 95.432 C 47.646 95.489,47.833 95.603,47.833 95.685 C 47.833 95.766,48.013 95.833,48.232 95.833 C 48.452 95.833,48.674 95.946,48.727 96.083 C 48.787 96.240,49.042 96.333,49.411 96.333 C 49.735 96.333,50.000 96.408,50.000 96.500 C 50.000 96.592,50.179 96.667,50.399 96.667 C 50.618 96.667,50.841 96.779,50.894 96.917 C 50.954 97.074,51.209 97.167,51.578 97.167 C 51.902 97.167,52.167 97.242,52.167 97.333 C 52.167 97.425,52.421 97.500,52.732 97.500 C 53.081 97.500,53.334 97.596,53.394 97.750 C 53.454 97.907,53.709 98.000,54.078 98.000 C 54.402 98.000,54.667 98.075,54.667 98.167 C 54.667 98.258,54.959 98.333,55.316 98.333 C 55.738 98.333,55.998 98.420,56.060 98.583 C 56.126 98.755,56.394 98.833,56.911 98.833 C 57.327 98.833,57.667 98.908,57.667 99.000 C 57.667 99.092,58.042 99.167,58.500 99.167 C 59.278 99.167,59.333 99.139,59.333 98.750 C 59.333 98.491,59.428 98.333,59.583 98.333 C 59.739 98.333,59.833 98.176,59.833 97.917 C 59.833 97.688,59.908 97.500,60.000 97.500 C 60.259 97.500,60.199 96.009,59.929 95.738 C 59.798 95.607,59.535 95.500,59.345 95.500 C 59.149 95.500,59.000 95.392,59.000 95.250 C 59.000 95.083,58.833 95.000,58.500 95.000 C 58.167 95.000,58.000 94.917,58.000 94.750 C 58.000 94.601,57.847 94.500,57.623 94.500 C 57.415 94.500,57.105 94.313,56.933 94.083 C 56.761 93.854,56.480 93.667,56.310 93.667 C 56.139 93.667,56.000 93.592,56.000 93.500 C 56.000 93.408,55.813 93.333,55.583 93.333 C 55.324 93.333,55.167 93.239,55.167 93.083 C 55.167 92.946,55.054 92.833,54.917 92.833 C 54.779 92.833,54.667 92.758,54.667 92.667 C 54.667 92.575,54.479 92.500,54.250 92.500 C 53.991 92.500,53.833 92.406,53.833 92.250 C 53.833 92.112,53.739 92.000,53.623 92.000 C 53.507 92.000,53.272 91.813,53.100 91.583 C 52.927 91.354,52.682 91.167,52.553 91.167 C 52.425 91.167,52.035 90.867,51.686 90.500 C 51.337 90.133,50.927 89.833,50.776 89.833 C 50.624 89.833,50.500 89.758,50.500 89.667 C 50.500 89.575,50.387 89.500,50.250 89.500 C 50.112 89.500,50.000 89.388,50.000 89.250 C 50.000 89.112,49.920 89.000,49.821 89.000 C 49.591 89.000,49.167 88.576,49.167 88.345 C 49.167 88.247,49.086 88.167,48.988 88.167 C 48.757 88.167,48.333 87.743,48.333 87.512 C 48.333 87.414,48.263 87.333,48.177 87.333 C 47.972 87.333,45.333 84.694,45.333 84.490 C 45.333 84.404,45.253 84.333,45.155 84.333 C 44.924 84.333,44.500 83.909,44.500 83.679 C 44.500 83.580,44.420 83.500,44.321 83.500 C 44.091 83.500,43.667 83.076,43.667 82.845 C 43.667 82.747,43.554 82.667,43.417 82.667 C 43.275 82.667,43.167 82.517,43.167 82.321 C 43.167 81.961,42.327 81.000,42.013 81.000 C 41.914 81.000,41.833 80.902,41.833 80.783 C 41.833 80.465,41.439 79.669,41.280 79.668 C 41.021 79.666,40.667 79.190,40.667 78.845 C 40.667 78.649,40.558 78.500,40.417 78.500 C 40.279 78.500,40.167 78.387,40.167 78.250 C 40.167 78.112,40.092 78.000,40.000 78.000 C 39.908 78.000,39.833 77.813,39.833 77.583 C 39.833 77.324,39.739 77.167,39.583 77.167 C 39.446 77.167,39.333 77.054,39.333 76.917 C 39.333 76.779,39.258 76.667,39.167 76.667 C 39.075 76.667,39.000 76.514,39.000 76.328 C 39.000 76.142,38.887 75.946,38.750 75.894 C 38.612 75.841,38.500 75.666,38.500 75.506 C 38.500 75.345,38.313 75.073,38.083 74.900 C 37.851 74.726,37.667 74.418,37.667 74.205 C 37.667 73.995,37.554 73.780,37.417 73.727 C 37.279 73.674,37.167 73.452,37.167 73.232 C 37.167 73.013,37.092 72.833,37.000 72.833 C 36.908 72.833,36.833 72.681,36.833 72.495 C 36.833 72.309,36.721 72.113,36.583 72.060 C 36.446 72.008,36.333 71.785,36.333 71.566 C 36.333 71.346,36.258 71.167,36.167 71.167 C 36.075 71.167,36.000 70.979,36.000 70.750 C 36.000 70.491,35.906 70.333,35.750 70.333 C 35.594 70.333,35.500 70.176,35.500 69.917 C 35.500 69.688,35.425 69.500,35.333 69.500 C 35.242 69.500,35.167 69.313,35.167 69.083 C 35.167 68.824,35.072 68.667,34.917 68.667 C 34.761 68.667,34.667 68.509,34.667 68.250 C 34.667 68.021,34.601 67.833,34.521 67.833 C 34.441 67.833,34.328 67.533,34.269 67.167 C 34.211 66.800,34.089 66.500,33.998 66.500 C 33.907 66.500,33.833 66.313,33.833 66.083 C 33.833 65.838,33.738 65.667,33.601 65.667 C 33.451 65.667,33.346 65.429,33.305 65.000 L 33.241 64.333 35.037 64.333 C 36.124 64.333,36.833 64.267,36.833 64.167 C 36.833 64.075,37.248 64.000,37.755 64.000 C 38.421 64.000,38.704 63.931,38.773 63.750 C 38.836 63.587,39.095 63.500,39.518 63.500 C 39.875 63.500,40.167 63.425,40.167 63.333 C 40.167 63.242,40.354 63.167,40.583 63.167 C 40.843 63.167,41.000 63.072,41.000 62.917 C 41.000 62.736,41.185 62.667,41.667 62.667 C 42.033 62.667,42.333 62.604,42.333 62.527 C 42.333 62.450,42.632 62.244,42.998 62.068 C 43.364 61.893,43.664 61.656,43.665 61.542 C 43.666 61.427,43.822 61.333,44.012 61.333 C 44.381 61.333,44.833 60.973,44.833 60.679 C 44.833 60.580,44.931 60.500,45.050 60.500 C 45.433 60.500,46.164 60.090,46.165 59.875 C 46.166 59.760,46.247 59.667,46.345 59.667 C 46.576 59.667,47.000 59.243,47.000 59.012 C 47.000 58.914,47.085 58.833,47.190 58.833 C 47.421 58.833,47.821 58.332,47.828 58.034 C 47.831 57.915,48.021 57.644,48.250 57.431 C 48.479 57.219,48.667 56.885,48.667 56.689 C 48.667 56.484,48.772 56.333,48.917 56.333 C 49.054 56.333,49.167 56.221,49.167 56.083 C 49.167 55.946,49.242 55.833,49.333 55.833 C 49.425 55.833,49.500 55.646,49.500 55.417 C 49.500 55.157,49.594 55.000,49.750 55.000 C 49.906 55.000,50.000 54.843,50.000 54.583 C 50.000 54.354,50.074 54.167,50.165 54.167 C 50.255 54.167,50.377 53.867,50.436 53.500 C 50.495 53.133,50.608 52.833,50.688 52.833 C 50.768 52.833,50.833 52.466,50.833 52.018 C 50.833 51.447,50.908 51.174,51.083 51.106 C 51.281 51.030,51.333 50.681,51.333 49.432 C 51.333 48.559,51.408 47.807,51.500 47.750 C 51.719 47.615,51.719 45.333,51.500 45.333 C 51.400 45.333,51.333 44.646,51.333 43.604 C 51.333 42.270,51.276 41.827,51.083 41.667 C 50.940 41.548,50.833 41.184,50.833 40.813 C 50.833 40.457,50.758 40.167,50.667 40.167 C 50.575 40.167,50.500 39.947,50.500 39.679 C 50.500 39.410,50.387 39.078,50.250 38.940 C 50.113 38.803,50.000 38.535,50.000 38.345 C 50.000 38.149,49.892 38.000,49.750 38.000 C 49.594 38.000,49.500 37.843,49.500 37.583 C 49.500 37.354,49.425 37.167,49.333 37.167 C 49.242 37.167,49.167 36.979,49.167 36.750 C 49.167 36.521,49.086 36.333,48.988 36.333 C 48.701 36.333,48.333 35.885,48.333 35.535 C 48.333 35.358,48.146 35.073,47.917 34.900 C 47.688 34.728,47.500 34.493,47.500 34.377 C 47.500 34.261,47.420 34.167,47.322 34.167 C 47.224 34.167,46.897 33.904,46.594 33.583 C 46.292 33.262,45.959 33.000,45.855 33.000 C 45.752 33.000,45.667 32.920,45.667 32.821 C 45.667 32.527,45.214 32.167,44.845 32.167 C 44.649 32.167,44.500 32.058,44.500 31.917 C 44.500 31.779,44.396 31.667,44.268 31.667 C 44.140 31.667,43.992 31.554,43.940 31.417 C 43.887 31.279,43.691 31.167,43.505 31.167 C 43.319 31.167,43.167 31.092,43.167 31.000 C 43.167 30.908,43.054 30.833,42.917 30.833 C 42.779 30.833,42.667 30.760,42.667 30.670 C 42.667 30.580,42.479 30.459,42.250 30.402 C 42.021 30.344,41.833 30.230,41.833 30.149 C 41.833 30.067,41.571 30.000,41.250 30.000 C 40.843 30.000,40.667 29.925,40.667 29.750 C 40.667 29.594,40.509 29.500,40.250 29.500 C 40.021 29.500,39.833 29.425,39.833 29.333 C 39.833 29.242,39.533 29.167,39.167 29.167 C 38.685 29.167,38.500 29.097,38.500 28.917 C 38.500 28.728,38.296 28.667,37.667 28.667 C 37.208 28.667,36.833 28.592,36.833 28.500 C 36.833 28.406,36.357 28.333,35.738 28.333 C 34.987 28.333,34.564 28.255,34.393 28.083 C 34.174 27.865,32.320 27.833,19.738 27.833 L 5.333 27.833 5.333 60.750 M67.500 29.750 C 67.500 29.926,67.322 30.000,66.894 30.000 C 66.462 30.000,66.178 30.119,65.902 30.417 C 65.690 30.646,65.405 30.833,65.270 30.833 C 65.135 30.833,64.877 31.021,64.696 31.250 C 64.516 31.479,64.286 31.667,64.184 31.667 C 64.083 31.667,64.000 31.779,64.000 31.917 C 64.000 32.054,63.925 32.167,63.833 32.167 C 63.742 32.167,63.667 32.354,63.667 32.583 C 63.667 32.843,63.572 33.000,63.417 33.000 C 63.261 33.000,63.167 33.157,63.167 33.417 C 63.167 33.646,63.092 33.833,63.000 33.833 C 62.907 33.833,62.833 34.282,62.833 34.845 C 62.833 35.522,62.751 35.940,62.583 36.107 C 62.446 36.245,62.333 36.539,62.333 36.762 C 62.333 37.011,62.430 37.167,62.583 37.167 C 62.780 37.167,62.833 37.398,62.833 38.250 C 62.833 38.861,62.906 39.333,63.000 39.333 C 63.092 39.333,63.167 39.521,63.167 39.750 C 63.167 40.009,63.261 40.167,63.417 40.167 C 63.572 40.167,63.667 40.324,63.667 40.583 C 63.667 40.813,63.742 41.000,63.833 41.000 C 63.925 41.000,64.000 41.112,64.000 41.250 C 64.000 41.387,64.080 41.500,64.179 41.500 C 64.409 41.500,64.833 41.924,64.833 42.155 C 64.833 42.253,64.946 42.333,65.083 42.333 C 65.221 42.333,65.333 42.408,65.333 42.500 C 65.333 42.592,65.446 42.667,65.583 42.667 C 65.721 42.667,65.833 42.779,65.833 42.917 C 65.833 43.072,65.991 43.167,66.250 43.167 C 66.479 43.167,66.667 43.242,66.667 43.333 C 66.667 43.425,67.042 43.500,67.500 43.500 C 68.130 43.500,68.333 43.561,68.333 43.750 C 68.333 43.944,68.556 44.000,69.333 44.000 C 70.111 44.000,70.333 43.944,70.333 43.750 C 70.333 43.558,70.546 43.500,71.250 43.500 C 71.754 43.500,72.167 43.425,72.167 43.333 C 72.167 43.242,72.354 43.167,72.583 43.167 C 72.843 43.167,73.000 43.072,73.000 42.917 C 73.000 42.779,73.131 42.664,73.292 42.661 C 73.652 42.655,74.167 42.279,74.167 42.023 C 74.167 41.919,74.279 41.833,74.417 41.833 C 74.572 41.833,74.667 41.676,74.667 41.417 C 74.667 41.157,74.761 41.000,74.917 41.000 C 75.054 41.000,75.167 40.887,75.167 40.750 C 75.167 40.612,75.242 40.500,75.333 40.500 C 75.425 40.500,75.500 40.313,75.500 40.083 C 75.500 39.824,75.594 39.667,75.750 39.667 C 75.930 39.667,76.000 39.483,76.000 39.010 C 76.000 38.649,76.075 38.307,76.167 38.250 C 76.258 38.193,76.333 37.476,76.333 36.657 C 76.333 35.774,76.265 35.167,76.167 35.167 C 76.075 35.167,76.000 34.867,76.000 34.500 C 76.000 34.019,75.931 33.833,75.750 33.833 C 75.594 33.833,75.500 33.676,75.500 33.417 C 75.500 33.188,75.425 33.000,75.333 33.000 C 75.242 33.000,75.167 32.813,75.167 32.583 C 75.167 32.324,75.072 32.167,74.917 32.167 C 74.779 32.167,74.667 32.094,74.667 32.006 C 74.667 31.788,73.721 30.833,73.506 30.833 C 73.411 30.833,73.333 30.760,73.333 30.670 C 73.333 30.580,73.146 30.459,72.917 30.402 C 72.688 30.344,72.500 30.230,72.500 30.149 C 72.500 30.067,72.246 30.000,71.934 30.000 C 71.586 30.000,71.332 29.904,71.273 29.750 C 71.196 29.549,70.819 29.500,69.339 29.500 C 67.815 29.500,67.500 29.543,67.500 29.750 M194.333 32.333 C 194.333 32.432,193.722 32.500,192.833 32.500 C 191.611 32.500,191.333 32.546,191.333 32.750 C 191.333 32.954,191.056 33.000,189.833 33.000 C 188.944 33.000,188.333 33.068,188.333 33.167 C 188.333 33.263,187.811 33.333,187.101 33.333 C 185.525 33.333,185.667 32.482,185.667 41.930 L 185.667 50.000 185.078 50.000 C 184.709 50.000,184.454 49.907,184.394 49.750 C 184.313 49.540,183.803 49.500,181.232 49.500 L 178.167 49.500 178.167 52.083 L 178.167 54.667 179.968 54.667 C 181.294 54.667,181.855 54.602,182.093 54.422 C 182.325 54.247,182.877 54.176,184.037 54.172 L 185.657 54.167 185.704 70.444 C 185.740 83.285,185.794 86.737,185.958 86.792 C 186.083 86.833,186.167 87.158,186.167 87.602 C 186.167 88.108,186.246 88.374,186.417 88.440 C 186.559 88.494,186.667 88.743,186.667 89.018 C 186.667 89.283,186.742 89.500,186.833 89.500 C 186.925 89.500,187.000 89.688,187.000 89.917 C 187.000 90.176,187.094 90.333,187.250 90.333 C 187.392 90.333,187.500 90.483,187.500 90.678 C 187.500 91.128,189.205 92.833,189.656 92.833 C 189.851 92.833,190.000 92.942,190.000 93.083 C 190.000 93.221,190.112 93.333,190.250 93.333 C 190.387 93.333,190.500 93.408,190.500 93.500 C 190.500 93.592,190.762 93.667,191.083 93.667 C 191.491 93.667,191.667 93.742,191.667 93.917 C 191.667 94.097,191.852 94.167,192.333 94.167 C 192.700 94.167,193.000 94.242,193.000 94.333 C 193.000 94.426,193.448 94.500,194.012 94.500 C 194.689 94.500,195.106 94.583,195.274 94.750 C 195.640 95.116,199.633 95.116,199.773 94.750 C 199.848 94.555,200.178 94.500,201.268 94.500 C 202.089 94.500,202.667 94.431,202.667 94.333 C 202.667 94.242,202.967 94.167,203.333 94.167 C 203.815 94.167,204.000 94.097,204.000 93.917 C 204.000 93.761,204.157 93.667,204.417 93.667 C 204.646 93.667,204.833 93.592,204.833 93.500 C 204.833 93.408,205.021 93.333,205.250 93.333 C 205.509 93.333,205.667 93.239,205.667 93.083 C 205.667 92.937,205.822 92.831,206.042 92.828 C 206.472 92.822,207.000 92.470,207.000 92.190 C 207.000 92.085,207.080 92.000,207.179 92.000 C 207.409 92.000,207.833 91.576,207.833 91.345 C 207.833 91.247,207.946 91.167,208.083 91.167 C 208.221 91.167,208.333 91.054,208.333 90.917 C 208.333 90.777,208.482 90.667,208.671 90.667 C 208.869 90.667,209.065 90.512,209.146 90.292 C 209.345 89.751,209.180 88.667,208.898 88.667 C 208.762 88.667,208.667 88.495,208.667 88.250 C 208.667 88.021,208.592 87.833,208.500 87.833 C 208.408 87.833,208.333 87.721,208.333 87.583 C 208.333 87.403,208.148 87.333,207.667 87.333 C 207.300 87.333,207.000 87.414,207.000 87.512 C 207.000 87.800,206.550 88.167,206.196 88.167 C 206.016 88.167,205.826 88.279,205.773 88.417 C 205.720 88.554,205.487 88.667,205.255 88.667 C 205.023 88.667,204.833 88.742,204.833 88.833 C 204.833 88.925,204.571 89.000,204.250 89.000 C 203.843 89.000,203.667 89.075,203.667 89.250 C 203.667 89.458,203.343 89.500,201.750 89.500 C 200.157 89.500,199.833 89.458,199.833 89.250 C 199.833 89.094,199.676 89.000,199.417 89.000 C 199.188 89.000,199.000 88.925,199.000 88.833 C 199.000 88.742,198.887 88.667,198.750 88.667 C 198.608 88.667,198.500 88.517,198.500 88.321 C 198.500 88.132,198.387 87.864,198.250 87.726 C 198.112 87.589,198.000 87.257,198.000 86.988 C 198.000 86.720,197.925 86.500,197.833 86.500 C 197.723 86.500,197.667 81.000,197.667 70.333 L 197.667 54.167 200.179 54.167 C 202.210 54.167,202.739 54.215,202.945 54.422 C 203.153 54.629,203.594 54.668,205.308 54.630 L 207.417 54.583 207.463 52.042 L 207.509 49.500 203.683 49.500 C 200.504 49.500,199.815 49.542,199.607 49.750 C 199.451 49.906,199.041 50.000,198.512 50.000 L 197.667 50.000 197.667 41.083 L 197.667 32.167 196.000 32.167 C 195.000 32.167,194.333 32.233,194.333 32.333 M228.667 32.333 C 228.667 32.431,228.083 32.500,227.250 32.500 C 226.102 32.500,225.833 32.547,225.833 32.750 C 225.833 32.954,225.556 33.000,224.333 33.000 C 223.444 33.000,222.833 33.068,222.833 33.167 C 222.833 33.264,222.278 33.333,221.500 33.333 L 220.167 33.333 220.167 41.667 L 220.167 50.000 219.518 50.000 C 219.095 50.000,218.836 49.913,218.773 49.750 C 218.693 49.540,218.180 49.500,215.589 49.500 L 212.500 49.500 212.500 52.083 L 212.500 54.667 214.339 54.667 C 215.819 54.667,216.196 54.618,216.273 54.417 C 216.351 54.215,216.734 54.167,218.268 54.167 L 220.167 54.167 220.167 70.750 C 220.167 85.380,220.196 87.333,220.417 87.333 C 220.597 87.333,220.667 87.517,220.667 87.990 C 220.667 88.351,220.742 88.693,220.833 88.750 C 220.925 88.807,221.000 89.038,221.000 89.265 C 221.000 89.492,221.112 89.720,221.250 89.773 C 221.387 89.826,221.500 89.973,221.500 90.101 C 221.500 90.229,221.570 90.333,221.655 90.333 C 221.741 90.333,221.864 90.502,221.929 90.708 C 221.993 90.915,222.299 91.322,222.607 91.614 C 222.915 91.906,223.167 92.224,223.167 92.322 C 223.167 92.420,223.279 92.500,223.417 92.500 C 223.554 92.500,223.667 92.575,223.667 92.667 C 223.667 92.758,223.854 92.833,224.083 92.833 C 224.313 92.833,224.500 92.914,224.500 93.012 C 224.500 93.351,224.978 93.667,225.493 93.667 C 225.799 93.667,226.050 93.769,226.106 93.917 C 226.159 94.054,226.382 94.167,226.601 94.167 C 226.821 94.167,227.000 94.242,227.000 94.333 C 227.000 94.431,227.556 94.500,228.333 94.500 C 229.407 94.500,229.667 94.549,229.667 94.750 C 229.667 94.960,230.028 95.000,231.917 95.000 C 233.806 95.000,234.167 94.960,234.167 94.750 C 234.167 94.549,234.426 94.500,235.500 94.500 C 236.278 94.500,236.833 94.431,236.833 94.333 C 236.833 94.242,237.208 94.167,237.667 94.167 C 238.296 94.167,238.500 94.106,238.500 93.917 C 238.500 93.761,238.657 93.667,238.917 93.667 C 239.146 93.667,239.333 93.592,239.333 93.500 C 239.333 93.408,239.521 93.333,239.750 93.333 C 240.009 93.333,240.167 93.239,240.167 93.083 C 240.167 92.946,240.279 92.833,240.417 92.833 C 240.554 92.833,240.667 92.758,240.667 92.667 C 240.667 92.575,240.806 92.500,240.977 92.500 C 241.147 92.500,241.427 92.313,241.600 92.083 C 241.772 91.854,242.007 91.667,242.123 91.667 C 242.239 91.667,242.333 91.554,242.333 91.417 C 242.333 91.279,242.446 91.167,242.583 91.167 C 242.721 91.167,242.833 91.086,242.833 90.988 C 242.833 90.757,243.257 90.333,243.488 90.333 C 243.586 90.333,243.667 90.033,243.667 89.667 C 243.667 89.185,243.597 89.000,243.417 89.000 C 243.261 89.000,243.167 88.843,243.167 88.583 C 243.167 88.354,243.092 88.167,243.000 88.167 C 242.908 88.167,242.833 87.979,242.833 87.750 C 242.833 87.375,242.767 87.333,242.167 87.333 C 241.745 87.333,241.500 87.410,241.499 87.542 C 241.497 87.757,240.766 88.167,240.383 88.167 C 240.264 88.167,240.167 88.279,240.167 88.417 C 240.167 88.572,240.009 88.667,239.750 88.667 C 239.521 88.667,239.333 88.742,239.333 88.833 C 239.333 88.925,239.071 89.000,238.750 89.000 C 238.343 89.000,238.167 89.075,238.167 89.250 C 238.167 89.458,237.842 89.500,236.245 89.500 C 234.690 89.500,234.305 89.452,234.227 89.250 C 234.174 89.112,233.984 89.000,233.804 89.000 C 233.450 89.000,233.000 88.634,233.000 88.345 C 233.000 88.247,232.887 88.167,232.750 88.167 C 232.575 88.167,232.500 87.991,232.500 87.583 C 232.500 87.263,232.425 87.000,232.333 87.000 C 232.223 87.000,232.167 81.417,232.167 70.583 L 232.167 54.167 234.732 54.167 C 236.859 54.167,237.314 54.209,237.394 54.417 C 237.472 54.620,237.866 54.667,239.495 54.667 L 241.500 54.667 241.500 52.083 L 241.500 49.500 237.854 49.500 C 234.816 49.500,234.173 49.542,234.000 49.750 C 233.867 49.910,233.499 50.000,232.980 50.000 L 232.167 50.000 232.167 41.083 L 232.167 32.167 230.417 32.167 C 229.361 32.167,228.667 32.233,228.667 32.333 M25.107 32.750 C 25.284 32.927,25.716 33.000,26.585 33.000 C 27.261 33.000,27.860 33.075,27.917 33.167 C 27.973 33.258,28.390 33.333,28.843 33.333 C 29.464 33.333,29.667 33.395,29.667 33.583 C 29.667 33.758,29.843 33.833,30.250 33.833 C 30.571 33.833,30.833 33.908,30.833 34.000 C 30.833 34.092,31.021 34.167,31.250 34.167 C 31.509 34.167,31.667 34.261,31.667 34.417 C 31.667 34.554,31.779 34.667,31.917 34.667 C 32.054 34.667,32.167 34.742,32.167 34.833 C 32.167 34.925,32.354 35.000,32.583 35.000 C 32.813 35.000,33.000 35.080,33.000 35.179 C 33.000 35.409,33.424 35.833,33.655 35.833 C 33.753 35.833,33.833 35.946,33.833 36.083 C 33.833 36.221,33.933 36.333,34.055 36.333 C 34.177 36.333,34.377 36.521,34.500 36.750 C 34.623 36.979,34.823 37.167,34.945 37.167 C 35.067 37.167,35.167 37.247,35.167 37.345 C 35.167 37.576,35.591 38.000,35.821 38.000 C 35.920 38.000,36.000 38.188,36.000 38.417 C 36.000 38.646,36.075 38.833,36.167 38.833 C 36.258 38.833,36.333 39.021,36.333 39.250 C 36.333 39.509,36.428 39.667,36.583 39.667 C 36.739 39.667,36.833 39.824,36.833 40.083 C 36.833 40.313,36.908 40.500,37.000 40.500 C 37.092 40.500,37.167 40.720,37.167 40.988 C 37.167 41.257,37.279 41.589,37.417 41.726 C 37.566 41.875,37.667 42.283,37.667 42.738 C 37.667 43.304,37.731 43.500,37.917 43.500 C 38.130 43.500,38.167 43.944,38.167 46.500 C 38.167 49.056,38.130 49.500,37.917 49.500 C 37.729 49.500,37.667 49.702,37.667 50.316 C 37.667 50.887,37.592 51.160,37.417 51.227 C 37.260 51.287,37.167 51.542,37.167 51.911 C 37.167 52.235,37.092 52.500,37.000 52.500 C 36.908 52.500,36.833 52.688,36.833 52.917 C 36.833 53.176,36.739 53.333,36.583 53.333 C 36.428 53.333,36.333 53.491,36.333 53.750 C 36.333 53.979,36.258 54.167,36.167 54.167 C 36.075 54.167,36.000 54.271,36.000 54.399 C 36.000 54.527,35.887 54.674,35.750 54.727 C 35.612 54.780,35.500 54.943,35.500 55.090 C 35.500 55.394,35.113 55.833,34.845 55.833 C 34.747 55.833,34.667 55.911,34.667 56.006 C 34.667 56.221,33.712 57.167,33.494 57.167 C 33.406 57.167,33.333 57.279,33.333 57.417 C 33.333 57.558,33.184 57.667,32.988 57.667 C 32.619 57.667,32.167 58.027,32.167 58.321 C 32.167 58.420,31.979 58.500,31.750 58.500 C 31.521 58.500,31.333 58.575,31.333 58.667 C 31.333 58.758,31.146 58.833,30.917 58.833 C 30.657 58.833,30.500 58.928,30.500 59.083 C 30.500 59.268,30.307 59.333,29.760 59.333 C 29.353 59.333,28.973 59.408,28.917 59.500 C 28.860 59.592,28.441 59.667,27.985 59.667 C 27.402 59.667,27.128 59.741,27.060 59.917 C 26.978 60.130,26.340 60.167,22.732 60.167 L 18.500 60.167 18.500 46.333 L 18.500 32.500 21.679 32.500 C 24.282 32.500,24.902 32.545,25.107 32.750 M331.333 47.167 C 331.333 47.265,330.748 47.333,329.911 47.333 C 328.801 47.333,328.469 47.388,328.394 47.583 C 328.323 47.766,328.036 47.833,327.325 47.833 C 326.791 47.833,326.307 47.908,326.250 48.000 C 326.193 48.092,325.932 48.167,325.669 48.167 C 325.406 48.167,325.078 48.279,324.940 48.417 C 324.803 48.554,324.460 48.667,324.179 48.667 C 323.835 48.667,323.667 48.749,323.667 48.917 C 323.667 49.072,323.509 49.167,323.250 49.167 C 323.021 49.167,322.833 49.242,322.833 49.333 C 322.833 49.425,322.646 49.500,322.417 49.500 C 322.157 49.500,322.000 49.594,322.000 49.750 C 322.000 49.917,321.833 50.000,321.500 50.000 C 321.225 50.000,321.000 50.075,321.000 50.167 C 321.000 50.258,320.813 50.333,320.583 50.333 C 320.324 50.333,320.167 50.428,320.167 50.583 C 320.167 50.725,320.017 50.833,319.821 50.833 C 319.452 50.833,319.000 51.194,319.000 51.488 C 319.000 51.586,318.813 51.667,318.583 51.667 C 318.354 51.667,318.167 51.742,318.167 51.833 C 318.167 51.925,318.054 52.000,317.917 52.000 C 317.779 52.000,317.667 52.112,317.667 52.250 C 317.667 52.387,317.554 52.500,317.417 52.500 C 317.279 52.500,317.167 52.580,317.167 52.679 C 317.167 52.909,316.743 53.333,316.512 53.333 C 316.414 53.333,316.333 53.446,316.333 53.583 C 316.333 53.721,316.258 53.833,316.167 53.833 C 316.056 53.833,316.000 62.583,316.000 79.750 L 316.000 105.667 316.407 105.667 C 316.631 105.667,316.860 105.742,316.917 105.833 C 316.973 105.925,317.278 106.000,317.593 106.000 C 317.992 106.000,318.167 106.076,318.167 106.250 C 318.167 106.425,318.343 106.500,318.750 106.500 C 319.071 106.500,319.333 106.575,319.333 106.667 C 319.333 106.758,319.633 106.833,320.000 106.833 C 320.481 106.833,320.667 106.903,320.667 107.083 C 320.667 107.239,320.824 107.333,321.083 107.333 C 321.313 107.333,321.500 107.408,321.500 107.500 C 321.500 107.592,321.875 107.667,322.333 107.667 L 323.167 107.667 323.167 96.417 C 323.167 86.528,323.197 85.167,323.417 85.167 C 323.554 85.167,323.667 85.247,323.667 85.345 C 323.667 85.634,324.116 86.000,324.470 86.000 C 324.650 86.000,324.841 86.112,324.894 86.250 C 324.954 86.407,325.209 86.500,325.578 86.500 C 325.902 86.500,326.167 86.575,326.167 86.667 C 326.167 86.758,326.319 86.833,326.505 86.833 C 326.691 86.833,326.887 86.946,326.940 87.083 C 327.002 87.246,327.262 87.333,327.684 87.333 C 328.150 87.333,328.333 87.404,328.333 87.583 C 328.333 87.772,328.537 87.833,329.167 87.833 C 329.625 87.833,330.000 87.908,330.000 88.000 C 330.000 88.100,330.671 88.167,331.679 88.167 C 332.948 88.167,333.418 88.228,333.607 88.417 C 333.745 88.554,334.034 88.667,334.250 88.667 C 334.466 88.667,334.755 88.554,334.893 88.417 C 335.071 88.238,335.505 88.167,336.405 88.167 C 337.135 88.167,337.667 88.096,337.667 88.000 C 337.667 87.908,338.042 87.833,338.500 87.833 C 339.130 87.833,339.333 87.772,339.333 87.583 C 339.333 87.403,339.519 87.333,340.000 87.333 C 340.481 87.333,340.667 87.264,340.667 87.083 C 340.667 86.942,340.816 86.833,341.012 86.833 C 341.381 86.833,341.833 86.473,341.833 86.179 C 341.833 86.080,342.026 86.000,342.262 86.000 C 342.701 86.000,343.167 85.663,343.167 85.345 C 343.167 85.247,343.354 85.167,343.583 85.167 C 343.813 85.167,344.000 85.092,344.000 85.000 C 344.000 84.908,344.113 84.833,344.250 84.833 C 344.387 84.833,344.500 84.753,344.500 84.655 C 344.500 84.424,344.924 84.000,345.155 84.000 C 345.253 84.000,345.333 83.887,345.333 83.750 C 345.333 83.612,345.408 83.500,345.500 83.500 C 345.592 83.500,345.667 83.387,345.667 83.250 C 345.667 83.112,345.779 83.000,345.917 83.000 C 346.072 83.000,346.167 82.843,346.167 82.583 C 346.167 82.354,346.247 82.167,346.345 82.167 C 346.639 82.167,347.000 81.714,347.000 81.345 C 347.000 81.149,347.108 81.000,347.250 81.000 C 347.406 81.000,347.500 80.843,347.500 80.583 C 347.500 80.354,347.575 80.167,347.667 80.167 C 347.758 80.167,347.833 80.063,347.833 79.937 C 347.833 79.811,347.946 79.614,348.083 79.500 C 348.221 79.386,348.333 79.077,348.333 78.813 C 348.333 78.549,348.408 78.333,348.500 78.333 C 348.592 78.333,348.667 78.146,348.667 77.917 C 348.667 77.657,348.761 77.500,348.917 77.500 C 349.091 77.500,349.167 77.324,349.167 76.917 C 349.167 76.596,349.242 76.333,349.333 76.333 C 349.425 76.333,349.500 75.921,349.500 75.417 C 349.500 74.713,349.558 74.500,349.750 74.500 C 349.952 74.500,350.000 74.233,350.000 73.097 C 350.000 72.123,350.064 71.673,350.208 71.625 C 350.365 71.573,350.417 70.797,350.417 68.500 C 350.417 66.204,350.365 65.427,350.208 65.375 C 350.060 65.326,350.000 64.826,350.000 63.648 C 350.000 62.328,349.949 61.970,349.750 61.894 C 349.575 61.826,349.500 61.553,349.500 60.982 C 349.500 60.534,349.425 60.167,349.333 60.167 C 349.242 60.167,349.167 59.792,349.167 59.333 C 349.167 58.704,349.106 58.500,348.917 58.500 C 348.736 58.500,348.667 58.315,348.667 57.833 C 348.667 57.467,348.592 57.167,348.500 57.167 C 348.408 57.167,348.333 56.979,348.333 56.750 C 348.333 56.491,348.239 56.333,348.083 56.333 C 347.928 56.333,347.833 56.176,347.833 55.917 C 347.833 55.688,347.758 55.500,347.667 55.500 C 347.575 55.500,347.500 55.313,347.500 55.083 C 347.500 54.824,347.406 54.667,347.250 54.667 C 347.094 54.667,347.000 54.509,347.000 54.250 C 347.000 54.021,346.925 53.833,346.833 53.833 C 346.742 53.833,346.667 53.721,346.667 53.583 C 346.667 53.446,346.554 53.333,346.417 53.333 C 346.261 53.333,346.167 53.176,346.167 52.917 C 346.167 52.657,346.072 52.500,345.917 52.500 C 345.779 52.500,345.667 52.420,345.667 52.321 C 345.667 52.091,345.243 51.667,345.012 51.667 C 344.914 51.667,344.833 51.586,344.833 51.488 C 344.833 51.257,344.409 50.833,344.179 50.833 C 344.080 50.833,344.000 50.753,344.000 50.655 C 344.000 50.424,343.576 50.000,343.345 50.000 C 343.247 50.000,343.167 49.887,343.167 49.750 C 343.167 49.612,343.054 49.500,342.917 49.500 C 342.779 49.500,342.667 49.425,342.667 49.333 C 342.667 49.242,342.479 49.167,342.250 49.167 C 341.991 49.167,341.833 49.072,341.833 48.917 C 341.833 48.764,341.678 48.667,341.434 48.667 C 341.215 48.667,340.992 48.554,340.940 48.417 C 340.887 48.279,340.691 48.167,340.505 48.167 C 340.319 48.167,340.167 48.092,340.167 48.000 C 340.167 47.908,339.912 47.833,339.601 47.833 C 339.252 47.833,338.999 47.738,338.940 47.583 C 338.866 47.392,338.551 47.333,337.589 47.333 C 336.863 47.333,336.333 47.263,336.333 47.167 C 336.333 47.063,335.389 47.000,333.833 47.000 C 332.278 47.000,331.333 47.063,331.333 47.167 M366.667 47.167 C 366.667 47.258,366.367 47.333,366.000 47.333 C 365.519 47.333,365.333 47.403,365.333 47.583 C 365.333 47.764,365.148 47.833,364.667 47.833 C 364.300 47.833,364.000 47.908,364.000 48.000 C 364.000 48.092,363.773 48.167,363.495 48.167 C 363.199 48.167,362.950 48.271,362.894 48.417 C 362.831 48.580,362.572 48.667,362.149 48.667 C 361.683 48.667,361.500 48.737,361.500 48.917 C 361.500 49.097,361.315 49.167,360.833 49.167 L 360.167 49.167 360.167 63.922 C 360.167 76.884,360.197 78.689,360.417 78.773 C 360.586 78.838,360.667 79.103,360.667 79.591 C 360.667 79.989,360.742 80.360,360.833 80.417 C 360.925 80.473,361.000 80.703,361.000 80.927 C 361.000 81.177,361.096 81.333,361.250 81.333 C 361.406 81.333,361.500 81.491,361.500 81.750 C 361.500 82.009,361.594 82.167,361.750 82.167 C 361.887 82.167,362.000 82.279,362.000 82.417 C 362.000 82.554,362.075 82.667,362.167 82.667 C 362.258 82.667,362.333 82.854,362.333 83.083 C 362.333 83.343,362.428 83.500,362.583 83.500 C 362.721 83.500,362.833 83.580,362.833 83.679 C 362.833 83.909,363.257 84.333,363.488 84.333 C 363.586 84.333,363.667 84.414,363.667 84.512 C 363.667 84.734,364.087 85.167,364.304 85.167 C 364.392 85.167,364.508 85.279,364.560 85.417 C 364.613 85.554,364.809 85.667,364.995 85.667 C 365.181 85.667,365.333 85.742,365.333 85.833 C 365.333 85.925,365.446 86.000,365.583 86.000 C 365.721 86.000,365.833 86.112,365.833 86.250 C 365.833 86.406,365.991 86.500,366.250 86.500 C 366.479 86.500,366.667 86.575,366.667 86.667 C 366.667 86.758,366.807 86.833,366.980 86.833 C 367.152 86.833,367.386 86.946,367.500 87.083 C 367.614 87.221,367.915 87.333,368.169 87.333 C 368.426 87.333,368.674 87.444,368.727 87.583 C 368.795 87.760,369.070 87.833,369.661 87.833 C 370.123 87.833,370.500 87.908,370.500 88.000 C 370.500 88.106,371.806 88.167,374.083 88.167 C 376.361 88.167,377.667 88.106,377.667 88.000 C 377.667 87.904,378.190 87.833,378.905 87.833 C 379.783 87.833,380.216 87.761,380.393 87.583 C 380.549 87.427,380.959 87.333,381.488 87.333 C 381.953 87.333,382.333 87.259,382.333 87.169 C 382.333 87.078,382.633 86.956,383.000 86.897 C 383.367 86.839,383.667 86.725,383.667 86.645 C 383.667 86.565,383.929 86.500,384.250 86.500 C 384.657 86.500,384.833 86.425,384.833 86.250 C 384.833 86.094,384.991 86.000,385.250 86.000 C 385.479 86.000,385.667 85.925,385.667 85.833 C 385.667 85.742,385.892 85.667,386.167 85.667 L 386.667 85.667 386.667 88.667 C 386.667 91.222,386.630 91.667,386.417 91.667 C 386.217 91.667,386.167 91.915,386.167 92.903 C 386.167 93.652,386.095 94.163,385.984 94.200 C 385.883 94.233,385.761 94.615,385.712 95.047 C 385.663 95.480,385.558 95.833,385.478 95.833 C 385.399 95.833,385.333 96.021,385.333 96.250 C 385.333 96.509,385.239 96.667,385.083 96.667 C 384.946 96.667,384.833 96.779,384.833 96.917 C 384.833 97.054,384.758 97.167,384.667 97.167 C 384.575 97.167,384.500 97.300,384.500 97.463 C 384.500 97.774,384.240 98.041,383.429 98.565 C 383.161 98.738,382.777 99.057,382.577 99.273 C 382.376 99.490,382.052 99.667,381.856 99.667 C 381.651 99.667,381.500 99.772,381.500 99.917 C 381.500 100.054,381.387 100.167,381.250 100.167 C 381.113 100.167,381.000 100.242,381.000 100.333 C 381.000 100.425,380.738 100.500,380.417 100.500 C 380.009 100.500,379.833 100.575,379.833 100.750 C 379.833 100.906,379.676 101.000,379.417 101.000 C 379.188 101.000,379.000 101.075,379.000 101.167 C 379.000 101.258,378.623 101.333,378.161 101.333 C 377.570 101.333,377.295 101.407,377.227 101.583 C 377.157 101.766,376.868 101.833,376.149 101.833 C 375.605 101.833,375.167 101.908,375.167 102.000 C 375.167 102.094,374.698 102.167,374.095 102.167 C 373.365 102.167,372.944 102.246,372.774 102.417 C 372.606 102.584,372.189 102.667,371.512 102.667 L 370.500 102.667 370.500 103.250 C 370.500 103.571,370.575 103.833,370.667 103.833 C 370.758 103.833,370.833 104.211,370.833 104.672 C 370.833 105.264,370.907 105.539,371.083 105.606 C 371.254 105.672,371.333 105.939,371.333 106.446 C 371.333 106.869,371.436 107.293,371.571 107.429 C 371.842 107.699,373.333 107.759,373.333 107.500 C 373.333 107.399,374.083 107.333,375.250 107.333 C 376.843 107.333,377.167 107.291,377.167 107.083 C 377.167 106.891,377.380 106.833,378.083 106.833 C 378.587 106.833,379.000 106.758,379.000 106.667 C 379.000 106.575,379.375 106.500,379.833 106.500 C 380.463 106.500,380.667 106.439,380.667 106.250 C 380.667 106.075,380.843 106.000,381.250 106.000 C 381.571 106.000,381.833 105.925,381.833 105.833 C 381.833 105.742,382.133 105.667,382.500 105.667 C 382.981 105.667,383.167 105.597,383.167 105.417 C 383.167 105.261,383.324 105.167,383.583 105.167 C 383.813 105.167,384.000 105.092,384.000 105.000 C 384.000 104.908,384.188 104.833,384.417 104.833 C 384.676 104.833,384.833 104.739,384.833 104.583 C 384.833 104.428,384.991 104.333,385.250 104.333 C 385.479 104.333,385.667 104.260,385.667 104.170 C 385.667 104.080,385.854 103.959,386.083 103.902 C 386.313 103.844,386.500 103.730,386.500 103.649 C 386.500 103.567,386.613 103.500,386.750 103.500 C 386.887 103.500,387.000 103.388,387.000 103.250 C 387.000 103.094,387.157 103.000,387.417 103.000 C 387.646 103.000,387.833 102.925,387.833 102.833 C 387.833 102.742,387.946 102.667,388.083 102.667 C 388.221 102.667,388.333 102.586,388.333 102.488 C 388.333 102.257,388.757 101.833,388.988 101.833 C 389.086 101.833,389.167 101.753,389.167 101.655 C 389.167 101.424,389.591 101.000,389.821 101.000 C 389.920 101.000,390.000 100.921,390.000 100.825 C 390.000 100.729,390.188 100.477,390.417 100.265 C 390.646 100.052,390.833 99.718,390.833 99.523 C 390.833 99.317,390.939 99.167,391.083 99.167 C 391.239 99.167,391.333 99.009,391.333 98.750 C 391.333 98.521,391.408 98.333,391.500 98.333 C 391.592 98.333,391.667 98.146,391.667 97.917 C 391.667 97.657,391.761 97.500,391.917 97.500 C 392.097 97.500,392.167 97.315,392.167 96.833 C 392.167 96.467,392.242 96.167,392.333 96.167 C 392.426 96.167,392.500 95.722,392.500 95.167 C 392.500 94.389,392.556 94.167,392.750 94.167 C 392.951 94.167,393.000 93.907,393.000 92.833 C 393.000 92.056,393.069 91.500,393.167 91.500 C 393.277 91.500,393.333 84.111,393.333 69.667 L 393.333 47.833 390.085 47.833 C 387.253 47.833,386.794 47.870,386.502 48.120 C 386.170 48.404,386.167 48.584,386.167 64.037 C 386.167 74.346,386.110 79.667,386.000 79.667 C 385.908 79.667,385.833 79.779,385.833 79.917 C 385.833 80.054,385.721 80.167,385.583 80.167 C 385.446 80.167,385.333 80.242,385.333 80.333 C 385.333 80.425,385.146 80.500,384.917 80.500 C 384.657 80.500,384.500 80.594,384.500 80.750 C 384.500 80.906,384.343 81.000,384.083 81.000 C 383.854 81.000,383.667 81.075,383.667 81.167 C 383.667 81.258,383.479 81.333,383.250 81.333 C 382.991 81.333,382.833 81.428,382.833 81.583 C 382.833 81.764,382.648 81.833,382.167 81.833 C 381.800 81.833,381.500 81.908,381.500 82.000 C 381.500 82.092,381.280 82.167,381.012 82.167 C 380.743 82.167,380.411 82.279,380.274 82.417 C 380.125 82.566,379.717 82.667,379.262 82.667 C 378.696 82.667,378.500 82.731,378.500 82.917 C 378.500 83.122,378.204 83.167,376.833 83.167 C 375.463 83.167,375.167 83.122,375.167 82.917 C 375.167 82.725,374.956 82.667,374.268 82.667 C 373.623 82.667,373.342 82.596,373.273 82.417 C 373.220 82.279,373.029 82.167,372.848 82.167 C 372.668 82.167,372.473 82.092,372.417 82.000 C 372.360 81.908,372.168 81.833,371.990 81.833 C 371.812 81.833,371.667 81.763,371.667 81.678 C 371.667 81.592,371.498 81.469,371.292 81.405 C 371.085 81.340,370.678 81.035,370.386 80.727 C 370.094 80.419,369.776 80.167,369.678 80.167 C 369.580 80.167,369.500 80.086,369.500 79.988 C 369.500 79.757,369.076 79.333,368.845 79.333 C 368.747 79.333,368.667 79.146,368.667 78.917 C 368.667 78.688,368.592 78.500,368.500 78.500 C 368.408 78.500,368.333 78.200,368.333 77.833 C 368.333 77.352,368.264 77.167,368.083 77.167 C 367.883 77.167,367.833 76.917,367.833 75.917 C 367.833 75.194,367.763 74.667,367.667 74.667 C 367.557 74.667,367.500 69.944,367.500 60.833 L 367.500 47.000 367.083 47.000 C 366.854 47.000,366.667 47.075,366.667 47.167 M73.773 48.917 C 73.698 49.112,73.365 49.167,72.255 49.167 C 71.418 49.167,70.833 49.235,70.833 49.333 C 70.833 49.431,70.248 49.500,69.411 49.500 C 68.301 49.500,67.969 49.555,67.894 49.750 C 67.820 49.941,67.507 50.000,66.566 50.000 C 65.855 50.000,65.333 50.071,65.333 50.167 C 65.333 50.258,64.958 50.333,64.499 50.333 L 63.665 50.333 63.708 72.208 L 63.750 94.083 69.289 94.127 C 74.650 94.170,74.840 94.160,75.164 93.836 C 75.497 93.503,75.500 93.328,75.500 71.083 L 75.500 48.667 74.684 48.667 C 74.113 48.667,73.840 48.742,73.773 48.917 M99.394 48.917 C 99.318 49.113,98.979 49.167,97.816 49.167 C 96.939 49.167,96.333 49.235,96.333 49.333 C 96.333 49.425,95.958 49.500,95.500 49.500 C 94.870 49.500,94.667 49.561,94.667 49.750 C 94.667 49.925,94.491 50.000,94.083 50.000 C 93.763 50.000,93.500 50.075,93.500 50.167 C 93.500 50.258,93.275 50.333,93.000 50.333 C 92.667 50.333,92.500 50.417,92.500 50.583 C 92.500 50.739,92.343 50.833,92.083 50.833 C 91.854 50.833,91.667 50.908,91.667 51.000 C 91.667 51.092,91.479 51.167,91.250 51.167 C 90.991 51.167,90.833 51.261,90.833 51.417 C 90.833 51.561,90.683 51.667,90.477 51.667 C 90.282 51.667,89.948 51.854,89.735 52.083 C 89.523 52.313,89.244 52.500,89.115 52.500 C 88.986 52.500,88.739 52.688,88.567 52.917 C 88.395 53.146,88.160 53.333,88.044 53.333 C 87.928 53.333,87.833 53.414,87.833 53.512 C 87.833 53.743,87.409 54.167,87.179 54.167 C 87.080 54.167,87.000 54.354,87.000 54.583 C 87.000 54.813,86.925 55.000,86.833 55.000 C 86.742 55.000,86.667 55.112,86.667 55.250 C 86.667 55.387,86.554 55.500,86.417 55.500 C 86.276 55.500,86.167 55.649,86.167 55.841 C 86.167 56.029,85.979 56.356,85.750 56.569 C 85.476 56.822,85.333 57.134,85.333 57.477 C 85.333 57.831,85.252 58.000,85.083 58.000 C 84.894 58.000,84.833 58.204,84.833 58.833 C 84.833 59.292,84.758 59.667,84.667 59.667 C 84.563 59.667,84.500 60.556,84.500 62.000 C 84.500 63.444,84.563 64.333,84.667 64.333 C 84.758 64.333,84.833 64.708,84.833 65.167 C 84.833 65.796,84.894 66.000,85.083 66.000 C 85.250 66.000,85.333 66.167,85.333 66.500 C 85.333 66.775,85.408 67.000,85.500 67.000 C 85.592 67.000,85.667 67.152,85.667 67.339 C 85.667 67.525,85.779 67.720,85.917 67.773 C 86.054 67.826,86.167 68.048,86.167 68.268 C 86.167 68.487,86.247 68.667,86.345 68.667 C 86.576 68.667,87.000 69.091,87.000 69.321 C 87.000 69.420,87.100 69.500,87.222 69.500 C 87.344 69.500,87.544 69.688,87.667 69.917 C 87.789 70.146,87.989 70.333,88.111 70.333 C 88.234 70.333,88.333 70.414,88.333 70.512 C 88.333 70.743,88.757 71.167,88.988 71.167 C 89.086 71.167,89.167 71.279,89.167 71.417 C 89.167 71.572,89.324 71.667,89.583 71.667 C 89.813 71.667,90.000 71.742,90.000 71.833 C 90.000 71.925,90.112 72.000,90.250 72.000 C 90.388 72.000,90.500 72.112,90.500 72.250 C 90.500 72.406,90.657 72.500,90.917 72.500 C 91.146 72.500,91.333 72.575,91.333 72.667 C 91.333 72.758,91.521 72.833,91.750 72.833 C 92.009 72.833,92.167 72.928,92.167 73.083 C 92.167 73.258,92.343 73.333,92.750 73.333 C 93.071 73.333,93.333 73.408,93.333 73.500 C 93.333 73.592,93.558 73.667,93.833 73.667 C 94.167 73.667,94.333 73.750,94.333 73.917 C 94.333 74.091,94.509 74.167,94.917 74.167 C 95.237 74.167,95.500 74.241,95.500 74.331 C 95.500 74.422,95.800 74.544,96.167 74.603 C 96.533 74.661,96.833 74.775,96.833 74.855 C 96.833 74.935,97.208 75.000,97.667 75.000 C 98.296 75.000,98.500 75.061,98.500 75.250 C 98.500 75.431,98.685 75.500,99.167 75.500 C 99.533 75.500,99.833 75.575,99.833 75.667 C 99.833 75.758,100.013 75.833,100.232 75.833 C 100.452 75.833,100.674 75.946,100.727 76.083 C 100.787 76.240,101.042 76.333,101.411 76.333 C 101.735 76.333,102.000 76.408,102.000 76.500 C 102.000 76.592,102.263 76.667,102.583 76.667 C 102.991 76.667,103.167 76.742,103.167 76.917 C 103.167 77.072,103.324 77.167,103.583 77.167 C 103.813 77.167,104.000 77.242,104.000 77.333 C 104.000 77.425,104.179 77.500,104.399 77.500 C 104.618 77.500,104.841 77.612,104.894 77.750 C 104.946 77.887,105.179 78.000,105.411 78.000 C 105.643 78.000,105.833 78.075,105.833 78.167 C 105.833 78.258,105.986 78.333,106.172 78.333 C 106.358 78.333,106.554 78.446,106.606 78.583 C 106.659 78.721,106.882 78.833,107.101 78.833 C 107.321 78.833,107.500 78.919,107.500 79.023 C 107.500 79.279,108.015 79.655,108.375 79.661 C 108.535 79.664,108.667 79.779,108.667 79.917 C 108.667 80.054,108.747 80.167,108.845 80.167 C 108.942 80.167,109.270 80.429,109.573 80.750 C 109.875 81.071,110.208 81.333,110.311 81.333 C 110.415 81.333,110.500 81.521,110.500 81.750 C 110.500 81.979,110.575 82.167,110.667 82.167 C 110.769 82.167,110.833 83.000,110.833 84.333 C 110.833 85.667,110.769 86.500,110.667 86.500 C 110.575 86.500,110.500 86.688,110.500 86.917 C 110.500 87.176,110.406 87.333,110.250 87.333 C 110.112 87.333,110.000 87.433,110.000 87.555 C 110.000 87.677,109.813 87.877,109.583 88.000 C 109.354 88.123,109.167 88.323,109.167 88.445 C 109.167 88.567,109.054 88.667,108.917 88.667 C 108.779 88.667,108.667 88.742,108.667 88.833 C 108.667 88.925,108.479 89.000,108.250 89.000 C 107.991 89.000,107.833 89.094,107.833 89.250 C 107.833 89.425,107.657 89.500,107.250 89.500 C 106.929 89.500,106.667 89.575,106.667 89.667 C 106.667 89.759,106.220 89.833,105.661 89.833 C 104.922 89.833,104.631 89.899,104.560 90.083 C 104.481 90.290,104.033 90.333,101.970 90.333 C 99.976 90.333,99.426 90.283,99.226 90.083 C 99.065 89.923,98.653 89.833,98.071 89.833 C 97.574 89.833,97.167 89.758,97.167 89.667 C 97.167 89.575,96.792 89.500,96.333 89.500 C 95.704 89.500,95.500 89.439,95.500 89.250 C 95.500 89.094,95.343 89.000,95.083 89.000 C 94.854 89.000,94.667 88.925,94.667 88.833 C 94.667 88.742,94.367 88.667,94.000 88.667 C 93.519 88.667,93.333 88.597,93.333 88.417 C 93.333 88.261,93.176 88.167,92.917 88.167 C 92.688 88.167,92.500 88.092,92.500 88.000 C 92.500 87.908,92.313 87.833,92.083 87.833 C 91.824 87.833,91.667 87.739,91.667 87.583 C 91.667 87.439,91.516 87.333,91.311 87.333 C 91.115 87.333,90.781 87.146,90.569 86.917 C 90.356 86.688,90.029 86.500,89.841 86.500 C 89.654 86.500,89.500 86.420,89.500 86.321 C 89.500 86.091,89.076 85.667,88.845 85.667 C 88.747 85.667,88.667 85.586,88.667 85.488 C 88.667 85.257,88.243 84.833,88.012 84.833 C 87.914 84.833,87.833 84.753,87.833 84.655 C 87.833 84.424,87.409 84.000,87.179 84.000 C 87.080 84.000,87.000 83.887,87.000 83.750 C 87.000 83.579,86.828 83.500,86.454 83.500 C 85.849 83.500,85.333 83.961,85.333 84.502 C 85.333 84.685,85.222 84.833,85.083 84.833 C 84.928 84.833,84.833 84.991,84.833 85.250 C 84.833 85.479,84.758 85.667,84.667 85.667 C 84.575 85.667,84.500 85.854,84.500 86.083 C 84.500 86.343,84.406 86.500,84.250 86.500 C 84.094 86.500,84.000 86.657,84.000 86.917 C 84.000 87.146,83.943 87.333,83.873 87.333 C 83.746 87.333,83.444 87.827,83.238 88.375 C 83.177 88.535,83.062 88.667,82.981 88.667 C 82.900 88.667,82.833 89.042,82.833 89.500 C 82.833 90.240,82.873 90.333,83.189 90.333 C 83.385 90.333,83.719 90.521,83.931 90.750 C 84.180 91.019,84.498 91.167,84.825 91.167 C 85.166 91.167,85.333 91.249,85.333 91.417 C 85.333 91.572,85.491 91.667,85.750 91.667 C 85.979 91.667,86.167 91.742,86.167 91.833 C 86.167 91.925,86.346 92.000,86.566 92.000 C 86.785 92.000,87.008 92.112,87.060 92.250 C 87.120 92.407,87.375 92.500,87.745 92.500 C 88.068 92.500,88.333 92.575,88.333 92.667 C 88.333 92.758,88.633 92.833,89.000 92.833 C 89.481 92.833,89.667 92.903,89.667 93.083 C 89.667 93.272,89.870 93.333,90.500 93.333 C 90.958 93.333,91.333 93.408,91.333 93.500 C 91.333 93.592,91.708 93.667,92.167 93.667 C 92.796 93.667,93.000 93.728,93.000 93.917 C 93.000 94.113,93.231 94.167,94.083 94.167 C 94.694 94.167,95.167 94.239,95.167 94.333 C 95.167 94.435,95.917 94.500,97.083 94.500 C 98.676 94.500,99.000 94.542,99.000 94.750 C 99.000 94.964,99.481 95.000,102.333 95.000 C 105.185 95.000,105.667 94.964,105.667 94.750 C 105.667 94.542,105.991 94.500,107.583 94.500 C 108.750 94.500,109.500 94.435,109.500 94.333 C 109.500 94.239,109.972 94.167,110.583 94.167 C 111.435 94.167,111.667 94.113,111.667 93.917 C 111.667 93.728,111.870 93.667,112.500 93.667 C 112.958 93.667,113.333 93.592,113.333 93.500 C 113.333 93.408,113.523 93.333,113.755 93.333 C 113.987 93.333,114.220 93.221,114.273 93.083 C 114.332 92.929,114.586 92.833,114.934 92.833 C 115.246 92.833,115.500 92.758,115.500 92.667 C 115.500 92.575,115.688 92.500,115.917 92.500 C 116.176 92.500,116.333 92.406,116.333 92.250 C 116.333 92.102,116.487 91.999,116.708 91.998 C 116.935 91.997,117.313 91.735,117.667 91.333 C 117.987 90.968,118.387 90.669,118.554 90.668 C 118.888 90.666,119.333 90.292,119.333 90.012 C 119.333 89.914,119.414 89.833,119.512 89.833 C 119.806 89.833,120.167 89.381,120.167 89.012 C 120.167 88.816,120.275 88.667,120.417 88.667 C 120.554 88.667,120.667 88.554,120.667 88.417 C 120.667 88.279,120.742 88.167,120.833 88.167 C 120.925 88.167,121.000 87.979,121.000 87.750 C 121.000 87.491,121.094 87.333,121.250 87.333 C 121.406 87.333,121.500 87.176,121.500 86.917 C 121.500 86.688,121.575 86.500,121.667 86.500 C 121.758 86.500,121.833 86.200,121.833 85.833 C 121.833 85.352,121.903 85.167,122.083 85.167 C 122.278 85.167,122.333 84.943,122.333 84.155 C 122.333 83.478,122.416 83.060,122.583 82.893 C 122.770 82.706,122.833 82.245,122.833 81.066 C 122.833 79.818,122.781 79.470,122.583 79.394 C 122.397 79.322,122.333 79.026,122.333 78.232 C 122.333 77.396,122.279 77.167,122.083 77.167 C 121.928 77.167,121.833 77.009,121.833 76.750 C 121.833 76.521,121.758 76.333,121.667 76.333 C 121.575 76.333,121.500 76.146,121.500 75.917 C 121.500 75.657,121.406 75.500,121.250 75.500 C 121.094 75.500,121.000 75.343,121.000 75.083 C 121.000 74.854,120.925 74.667,120.833 74.667 C 120.742 74.667,120.667 74.554,120.667 74.417 C 120.667 74.279,120.554 74.167,120.417 74.167 C 120.275 74.167,120.167 74.017,120.167 73.821 C 120.167 73.366,119.229 72.460,118.333 72.050 C 117.981 71.889,117.667 71.556,117.667 71.345 C 117.667 71.247,117.554 71.167,117.417 71.167 C 117.279 71.167,117.167 71.092,117.167 71.000 C 117.167 70.908,116.979 70.833,116.750 70.833 C 116.521 70.833,116.333 70.739,116.333 70.623 C 116.333 70.507,116.033 70.282,115.667 70.123 C 115.300 69.964,115.000 69.759,115.000 69.667 C 115.000 69.575,114.813 69.500,114.583 69.500 C 114.354 69.500,114.167 69.426,114.167 69.337 C 114.167 69.247,113.979 69.126,113.750 69.068 C 113.521 69.011,113.333 68.897,113.333 68.815 C 113.333 68.734,113.071 68.667,112.750 68.667 C 112.343 68.667,112.167 68.591,112.167 68.417 C 112.167 68.261,112.009 68.167,111.750 68.167 C 111.521 68.167,111.333 68.092,111.333 68.000 C 111.333 67.908,111.033 67.833,110.667 67.833 C 110.185 67.833,110.000 67.764,110.000 67.583 C 110.000 67.418,109.834 67.333,109.510 67.333 C 109.240 67.333,108.973 67.258,108.917 67.167 C 108.860 67.075,108.601 67.000,108.341 67.000 C 108.075 67.000,107.827 66.891,107.773 66.750 C 107.713 66.593,107.458 66.500,107.089 66.500 C 106.765 66.500,106.500 66.425,106.500 66.333 C 106.500 66.242,106.246 66.167,105.934 66.167 C 105.586 66.167,105.332 66.071,105.273 65.917 C 105.212 65.758,104.957 65.667,104.577 65.667 C 104.246 65.667,103.864 65.554,103.726 65.417 C 103.589 65.279,103.294 65.167,103.071 65.167 C 102.849 65.167,102.667 65.092,102.667 65.000 C 102.667 64.908,102.404 64.833,102.083 64.833 C 101.676 64.833,101.500 64.758,101.500 64.583 C 101.500 64.429,101.344 64.333,101.093 64.333 C 100.869 64.333,100.640 64.258,100.583 64.167 C 100.527 64.075,100.222 64.000,99.907 64.000 C 99.508 64.000,99.333 63.924,99.333 63.750 C 99.333 63.594,99.176 63.500,98.917 63.500 C 98.688 63.500,98.500 63.425,98.500 63.333 C 98.500 63.242,98.388 63.167,98.250 63.167 C 98.112 63.167,98.000 63.054,98.000 62.917 C 98.000 62.775,97.851 62.667,97.655 62.667 C 97.286 62.667,96.833 62.306,96.833 62.012 C 96.833 61.914,96.753 61.833,96.655 61.833 C 96.424 61.833,96.000 61.409,96.000 61.179 C 96.000 61.080,95.888 61.000,95.750 61.000 C 95.594 61.000,95.500 60.843,95.500 60.583 C 95.500 60.354,95.425 60.167,95.333 60.167 C 95.242 60.167,95.167 59.985,95.167 59.762 C 95.167 59.539,95.054 59.245,94.917 59.107 C 94.779 58.970,94.667 58.584,94.667 58.250 C 94.667 57.916,94.779 57.530,94.917 57.393 C 95.054 57.255,95.167 56.976,95.167 56.771 C 95.167 56.259,95.539 55.503,95.792 55.501 C 95.906 55.501,96.000 55.420,96.000 55.321 C 96.000 55.091,96.424 54.667,96.655 54.667 C 96.753 54.667,96.833 54.554,96.833 54.417 C 96.833 54.261,96.991 54.167,97.250 54.167 C 97.479 54.167,97.667 54.092,97.667 54.000 C 97.667 53.908,97.932 53.833,98.255 53.833 C 98.625 53.833,98.880 53.740,98.940 53.583 C 99.020 53.373,99.537 53.333,102.167 53.333 C 104.796 53.333,105.313 53.373,105.394 53.583 C 105.459 53.755,105.727 53.833,106.245 53.833 C 106.660 53.833,107.000 53.908,107.000 54.000 C 107.000 54.092,107.300 54.167,107.667 54.167 C 108.148 54.167,108.333 54.236,108.333 54.417 C 108.333 54.572,108.491 54.667,108.750 54.667 C 108.979 54.667,109.167 54.742,109.167 54.833 C 109.167 54.925,109.354 55.000,109.583 55.000 C 109.843 55.000,110.000 55.094,110.000 55.250 C 110.000 55.406,110.157 55.500,110.417 55.500 C 110.646 55.500,110.833 55.575,110.833 55.667 C 110.833 55.758,110.946 55.833,111.083 55.833 C 111.221 55.833,111.333 55.946,111.333 56.083 C 111.333 56.225,111.483 56.333,111.679 56.333 C 112.048 56.333,112.500 56.694,112.500 56.988 C 112.500 57.086,112.569 57.167,112.654 57.167 C 112.854 57.167,113.833 58.146,113.833 58.346 C 113.833 58.431,113.914 58.500,114.012 58.500 C 114.243 58.500,114.667 58.924,114.667 59.155 C 114.667 59.253,114.747 59.333,114.845 59.333 C 115.139 59.333,115.500 59.786,115.500 60.155 C 115.500 60.351,115.608 60.500,115.750 60.500 C 115.906 60.500,116.000 60.657,116.000 60.917 C 116.000 61.268,116.078 61.333,116.498 61.333 C 117.075 61.333,117.667 60.892,117.667 60.463 C 117.667 60.300,117.742 60.167,117.833 60.167 C 117.925 60.167,118.000 60.014,118.000 59.828 C 118.000 59.642,118.112 59.446,118.250 59.394 C 118.388 59.341,118.500 59.152,118.500 58.974 C 118.500 58.796,118.688 58.477,118.917 58.265 C 119.146 58.052,119.333 57.718,119.333 57.523 C 119.333 57.317,119.439 57.167,119.583 57.167 C 119.739 57.167,119.833 57.009,119.833 56.750 C 119.833 56.521,119.908 56.333,120.000 56.333 C 120.092 56.333,120.167 55.997,120.167 55.585 C 120.167 54.772,119.796 54.167,119.296 54.167 C 119.133 54.167,119.000 54.092,119.000 54.000 C 119.000 53.908,118.888 53.833,118.750 53.833 C 118.612 53.833,118.500 53.721,118.500 53.583 C 118.500 53.446,118.388 53.333,118.250 53.333 C 118.112 53.333,118.000 53.258,118.000 53.167 C 118.000 53.075,117.813 53.000,117.583 53.000 C 117.324 53.000,117.167 52.906,117.167 52.750 C 117.167 52.594,117.009 52.500,116.750 52.500 C 116.491 52.500,116.333 52.406,116.333 52.250 C 116.333 52.094,116.176 52.000,115.917 52.000 C 115.688 52.000,115.500 51.925,115.500 51.833 C 115.500 51.742,115.313 51.667,115.083 51.667 C 114.824 51.667,114.667 51.572,114.667 51.417 C 114.667 51.261,114.509 51.167,114.250 51.167 C 114.021 51.167,113.833 51.092,113.833 51.000 C 113.833 50.908,113.533 50.833,113.167 50.833 C 112.685 50.833,112.500 50.764,112.500 50.583 C 112.500 50.409,112.324 50.333,111.917 50.333 C 111.596 50.333,111.333 50.258,111.333 50.167 C 111.333 50.075,110.921 50.000,110.417 50.000 C 109.713 50.000,109.500 49.942,109.500 49.750 C 109.500 49.561,109.296 49.500,108.667 49.500 C 108.208 49.500,107.833 49.425,107.833 49.333 C 107.833 49.231,107.026 49.167,105.745 49.167 C 104.042 49.167,103.638 49.120,103.560 48.917 C 103.482 48.714,103.090 48.667,101.477 48.667 C 99.864 48.667,99.471 48.714,99.394 48.917 M150.500 48.917 C 150.500 49.123,150.194 49.167,148.750 49.167 C 147.694 49.167,147.000 49.233,147.000 49.333 C 147.000 49.426,146.554 49.500,145.995 49.500 C 145.255 49.500,144.964 49.566,144.894 49.750 C 144.834 49.904,144.581 50.000,144.232 50.000 C 143.921 50.000,143.667 50.075,143.667 50.167 C 143.667 50.258,143.367 50.333,143.000 50.333 C 142.519 50.333,142.333 50.403,142.333 50.583 C 142.333 50.739,142.176 50.833,141.917 50.833 C 141.688 50.833,141.500 50.908,141.500 51.000 C 141.500 51.092,141.313 51.167,141.083 51.167 C 140.824 51.167,140.667 51.261,140.667 51.417 C 140.667 51.572,140.509 51.667,140.250 51.667 C 140.021 51.667,139.833 51.742,139.833 51.833 C 139.833 51.925,139.646 52.000,139.417 52.000 C 139.157 52.000,139.000 52.094,139.000 52.250 C 139.000 52.387,138.887 52.500,138.750 52.500 C 138.612 52.500,138.500 52.612,138.500 52.750 C 138.500 52.906,138.343 53.000,138.083 53.000 C 137.854 53.000,137.667 53.075,137.667 53.167 C 137.667 53.258,137.554 53.333,137.417 53.333 C 137.279 53.333,137.167 53.414,137.167 53.512 C 137.167 53.743,136.743 54.167,136.512 54.167 C 136.414 54.167,136.333 54.247,136.333 54.345 C 136.333 54.576,135.909 55.000,135.679 55.000 C 135.580 55.000,135.500 55.080,135.500 55.179 C 135.500 55.409,135.076 55.833,134.845 55.833 C 134.747 55.833,134.667 55.918,134.667 56.023 C 134.667 56.127,134.479 56.386,134.250 56.598 C 134.021 56.810,133.833 57.138,133.833 57.325 C 133.833 57.513,133.753 57.667,133.655 57.667 C 133.361 57.667,133.000 58.119,133.000 58.488 C 133.000 58.684,132.892 58.833,132.750 58.833 C 132.594 58.833,132.500 58.991,132.500 59.250 C 132.500 59.479,132.425 59.667,132.333 59.667 C 132.242 59.667,132.167 59.846,132.167 60.066 C 132.167 60.285,132.054 60.508,131.917 60.560 C 131.779 60.613,131.667 60.846,131.667 61.078 C 131.667 61.310,131.592 61.500,131.500 61.500 C 131.408 61.500,131.333 61.688,131.333 61.917 C 131.333 62.176,131.239 62.333,131.083 62.333 C 130.903 62.333,130.833 62.519,130.833 63.000 C 130.833 63.367,130.758 63.667,130.667 63.667 C 130.574 63.667,130.500 64.111,130.500 64.667 C 130.500 65.444,130.444 65.667,130.250 65.667 C 130.052 65.667,130.000 65.905,130.000 66.808 C 130.000 67.514,129.900 68.150,129.737 68.476 C 129.395 69.161,129.444 75.176,129.792 75.292 C 129.933 75.339,130.000 75.757,130.000 76.602 C 130.000 77.552,130.059 77.866,130.250 77.940 C 130.425 78.007,130.500 78.280,130.500 78.851 C 130.500 79.300,130.575 79.667,130.667 79.667 C 130.758 79.667,130.833 79.882,130.833 80.146 C 130.833 80.410,130.946 80.719,131.083 80.833 C 131.221 80.947,131.333 81.219,131.333 81.437 C 131.333 81.655,131.408 81.833,131.500 81.833 C 131.592 81.833,131.667 82.021,131.667 82.250 C 131.667 82.509,131.761 82.667,131.917 82.667 C 132.072 82.667,132.167 82.824,132.167 83.083 C 132.167 83.313,132.242 83.500,132.333 83.500 C 132.425 83.500,132.500 83.688,132.500 83.917 C 132.500 84.176,132.594 84.333,132.750 84.333 C 132.894 84.333,133.000 84.484,133.000 84.689 C 133.000 84.885,133.188 85.219,133.417 85.431 C 133.646 85.644,133.833 85.878,133.833 85.952 C 133.833 86.026,134.021 86.289,134.250 86.536 C 134.479 86.783,134.667 87.064,134.667 87.159 C 134.667 87.255,134.779 87.333,134.917 87.333 C 135.054 87.333,135.167 87.414,135.167 87.512 C 135.167 87.743,135.591 88.167,135.821 88.167 C 135.920 88.167,136.000 88.247,136.000 88.345 C 136.000 88.576,136.424 89.000,136.655 89.000 C 136.753 89.000,136.833 89.080,136.833 89.179 C 136.833 89.409,137.257 89.833,137.488 89.833 C 137.586 89.833,137.667 89.946,137.667 90.083 C 137.667 90.239,137.824 90.333,138.083 90.333 C 138.313 90.333,138.500 90.408,138.500 90.500 C 138.500 90.592,138.612 90.667,138.750 90.667 C 138.887 90.667,139.000 90.779,139.000 90.917 C 139.000 91.072,139.157 91.167,139.417 91.167 C 139.676 91.167,139.833 91.261,139.833 91.417 C 139.833 91.572,139.991 91.667,140.250 91.667 C 140.479 91.667,140.667 91.742,140.667 91.833 C 140.667 91.925,140.854 92.000,141.083 92.000 C 141.343 92.000,141.500 92.094,141.500 92.250 C 141.500 92.406,141.657 92.500,141.917 92.500 C 142.146 92.500,142.333 92.575,142.333 92.667 C 142.333 92.758,142.521 92.833,142.750 92.833 C 143.009 92.833,143.167 92.928,143.167 93.083 C 143.167 93.264,143.352 93.333,143.833 93.333 C 144.200 93.333,144.500 93.408,144.500 93.500 C 144.500 93.592,144.800 93.667,145.167 93.667 C 145.648 93.667,145.833 93.736,145.833 93.917 C 145.833 94.111,146.056 94.167,146.833 94.167 C 147.389 94.167,147.833 94.241,147.833 94.333 C 147.833 94.432,148.439 94.500,149.316 94.500 C 150.479 94.500,150.818 94.554,150.894 94.750 C 150.973 94.957,151.420 95.000,153.477 95.000 C 155.534 95.000,155.981 94.957,156.060 94.750 C 156.135 94.555,156.468 94.500,157.578 94.500 C 158.415 94.500,159.000 94.431,159.000 94.333 C 159.000 94.242,159.375 94.167,159.833 94.167 C 160.463 94.167,160.667 94.106,160.667 93.917 C 160.667 93.763,160.823 93.667,161.073 93.667 C 161.297 93.667,161.527 93.592,161.583 93.500 C 161.640 93.408,161.909 93.333,162.182 93.333 C 162.468 93.333,162.718 93.228,162.773 93.083 C 162.826 92.946,163.048 92.833,163.268 92.833 C 163.487 92.833,163.667 92.758,163.667 92.667 C 163.667 92.575,163.806 92.500,163.977 92.500 C 164.147 92.500,164.427 92.313,164.600 92.083 C 164.772 91.854,165.082 91.667,165.290 91.667 C 165.514 91.667,165.667 91.565,165.667 91.417 C 165.667 91.279,165.779 91.167,165.917 91.167 C 166.054 91.167,166.167 91.054,166.167 90.917 C 166.167 90.779,166.247 90.667,166.345 90.667 C 166.576 90.667,167.000 90.243,167.000 90.012 C 167.000 89.914,167.080 89.833,167.179 89.833 C 167.409 89.833,167.833 89.409,167.833 89.179 C 167.833 89.080,167.914 89.000,168.012 89.000 C 168.243 89.000,168.667 88.576,168.667 88.345 C 168.667 88.247,168.779 88.167,168.917 88.167 C 169.072 88.167,169.167 88.009,169.167 87.750 C 169.167 87.521,169.242 87.333,169.333 87.333 C 169.425 87.333,169.500 87.221,169.500 87.083 C 169.500 86.946,169.612 86.833,169.750 86.833 C 169.903 86.833,170.000 86.678,170.000 86.434 C 170.000 86.215,170.112 85.992,170.250 85.940 C 170.387 85.887,170.500 85.691,170.500 85.505 C 170.500 85.319,170.575 85.167,170.667 85.167 C 170.758 85.167,170.833 84.979,170.833 84.750 C 170.833 84.491,170.928 84.333,171.083 84.333 C 171.258 84.333,171.333 84.157,171.333 83.750 C 171.333 83.429,171.408 83.167,171.500 83.167 C 171.778 83.167,171.686 82.027,171.380 81.669 C 171.222 81.484,170.964 81.333,170.806 81.333 C 170.649 81.333,170.473 81.258,170.417 81.167 C 170.165 80.760,168.667 80.974,168.667 81.417 C 168.667 81.646,168.592 81.833,168.500 81.833 C 168.408 81.833,168.333 81.946,168.333 82.083 C 168.333 82.221,168.221 82.333,168.083 82.333 C 167.942 82.333,167.833 82.483,167.833 82.679 C 167.833 83.048,167.473 83.500,167.179 83.500 C 167.080 83.500,167.000 83.580,167.000 83.679 C 167.000 83.909,166.576 84.333,166.345 84.333 C 166.247 84.333,166.167 84.414,166.167 84.512 C 166.167 84.743,165.743 85.167,165.512 85.167 C 165.414 85.167,165.333 85.279,165.333 85.417 C 165.333 85.554,165.253 85.667,165.155 85.667 C 164.924 85.667,164.500 86.091,164.500 86.321 C 164.500 86.420,164.313 86.500,164.083 86.500 C 163.824 86.500,163.667 86.594,163.667 86.750 C 163.667 86.906,163.509 87.000,163.250 87.000 C 163.021 87.000,162.833 87.075,162.833 87.167 C 162.833 87.258,162.721 87.333,162.583 87.333 C 162.446 87.333,162.333 87.446,162.333 87.583 C 162.333 87.764,162.148 87.833,161.667 87.833 C 161.300 87.833,161.000 87.908,161.000 88.000 C 161.000 88.092,160.743 88.167,160.429 88.167 C 160.114 88.167,159.745 88.279,159.607 88.417 C 159.432 88.591,159.005 88.667,158.188 88.667 C 157.546 88.667,156.973 88.742,156.917 88.833 C 156.860 88.925,156.218 89.000,155.490 89.000 C 154.719 89.000,154.167 88.930,154.167 88.833 C 154.167 88.742,153.792 88.667,153.333 88.667 C 152.704 88.667,152.500 88.606,152.500 88.417 C 152.500 88.242,152.324 88.167,151.917 88.167 C 151.596 88.167,151.333 88.092,151.333 88.000 C 151.333 87.908,151.180 87.833,150.992 87.833 C 150.804 87.833,150.477 87.646,150.265 87.417 C 150.052 87.188,149.718 87.000,149.523 87.000 C 149.317 87.000,149.167 86.894,149.167 86.750 C 149.167 86.612,149.054 86.500,148.917 86.500 C 148.779 86.500,148.667 86.420,148.667 86.321 C 148.667 86.091,148.243 85.667,148.012 85.667 C 147.914 85.667,147.833 85.586,147.833 85.488 C 147.833 85.257,147.409 84.833,147.179 84.833 C 147.080 84.833,147.000 84.753,147.000 84.655 C 147.000 84.424,146.576 84.000,146.345 84.000 C 146.247 84.000,146.167 83.813,146.167 83.583 C 146.167 83.324,146.072 83.167,145.917 83.167 C 145.779 83.167,145.667 83.054,145.667 82.917 C 145.667 82.779,145.592 82.667,145.500 82.667 C 145.408 82.667,145.333 82.479,145.333 82.250 C 145.333 81.991,145.239 81.833,145.083 81.833 C 144.928 81.833,144.833 81.676,144.833 81.417 C 144.833 81.188,144.758 81.000,144.667 81.000 C 144.575 81.000,144.500 80.813,144.500 80.583 C 144.500 80.324,144.406 80.167,144.250 80.167 C 144.069 80.167,144.000 79.981,144.000 79.500 C 144.000 79.133,143.925 78.833,143.833 78.833 C 143.742 78.833,143.667 78.579,143.667 78.268 C 143.667 77.919,143.571 77.666,143.417 77.606 C 143.240 77.539,143.167 77.264,143.167 76.672 C 143.167 76.211,143.092 75.833,143.000 75.833 C 142.908 75.833,142.833 75.400,142.833 74.865 C 142.833 74.272,142.739 73.772,142.589 73.574 C 142.454 73.396,142.342 72.894,142.339 72.458 L 142.333 71.667 157.153 71.667 C 165.304 71.667,172.091 71.621,172.236 71.566 C 172.546 71.447,172.640 67.833,172.333 67.833 C 172.235 67.833,172.167 67.248,172.167 66.411 C 172.167 65.301,172.112 64.969,171.917 64.894 C 171.742 64.826,171.667 64.553,171.667 63.982 C 171.667 63.534,171.592 63.167,171.500 63.167 C 171.408 63.167,171.333 62.902,171.333 62.578 C 171.333 62.209,171.240 61.954,171.083 61.894 C 170.929 61.834,170.833 61.581,170.833 61.232 C 170.833 60.921,170.758 60.667,170.667 60.667 C 170.575 60.667,170.500 60.522,170.500 60.345 C 170.500 60.168,170.387 59.911,170.250 59.774 C 170.112 59.636,170.000 59.368,170.000 59.179 C 170.000 58.983,169.892 58.833,169.750 58.833 C 169.608 58.833,169.500 58.684,169.500 58.488 C 169.500 58.119,169.139 57.667,168.845 57.667 C 168.747 57.667,168.664 57.498,168.661 57.292 C 168.655 56.862,168.303 56.333,168.023 56.333 C 167.919 56.333,167.833 56.178,167.833 55.989 C 167.833 55.637,166.169 53.833,165.844 53.833 C 165.747 53.833,165.667 53.753,165.667 53.655 C 165.667 53.361,165.214 53.000,164.845 53.000 C 164.649 53.000,164.500 52.892,164.500 52.750 C 164.500 52.612,164.387 52.500,164.250 52.500 C 164.112 52.500,164.000 52.401,164.000 52.281 C 164.000 52.161,163.741 51.960,163.424 51.836 C 163.107 51.712,162.809 51.510,162.762 51.388 C 162.715 51.266,162.487 51.167,162.255 51.167 C 162.023 51.167,161.833 51.092,161.833 51.000 C 161.833 50.908,161.646 50.833,161.417 50.833 C 161.157 50.833,161.000 50.739,161.000 50.583 C 161.000 50.428,160.843 50.333,160.583 50.333 C 160.354 50.333,160.167 50.258,160.167 50.167 C 160.167 50.075,159.902 50.000,159.578 50.000 C 159.209 50.000,158.954 49.907,158.894 49.750 C 158.826 49.575,158.553 49.500,157.982 49.500 C 157.534 49.500,157.167 49.425,157.167 49.333 C 157.167 49.237,156.639 49.167,155.917 49.167 C 154.917 49.167,154.667 49.117,154.667 48.917 C 154.667 48.708,154.324 48.667,152.583 48.667 C 150.843 48.667,150.500 48.708,150.500 48.917 M268.894 48.917 C 268.817 49.117,268.451 49.167,267.066 49.167 C 266.022 49.167,265.333 49.233,265.333 49.333 C 265.333 49.425,264.958 49.500,264.500 49.500 C 263.870 49.500,263.667 49.561,263.667 49.750 C 263.667 49.939,263.463 50.000,262.833 50.000 C 262.375 50.000,262.000 50.075,262.000 50.167 C 262.000 50.258,261.810 50.333,261.578 50.333 C 261.346 50.333,261.113 50.446,261.060 50.583 C 261.001 50.738,260.748 50.833,260.399 50.833 C 260.088 50.833,259.833 50.908,259.833 51.000 C 259.833 51.092,259.681 51.167,259.495 51.167 C 259.309 51.167,259.113 51.279,259.060 51.417 C 259.008 51.554,258.860 51.667,258.732 51.667 C 258.604 51.667,258.500 51.742,258.500 51.833 C 258.500 51.925,258.313 52.000,258.083 52.000 C 257.824 52.000,257.667 52.094,257.667 52.250 C 257.667 52.406,257.509 52.500,257.250 52.500 C 256.991 52.500,256.833 52.594,256.833 52.750 C 256.833 52.887,256.753 53.000,256.655 53.000 C 256.424 53.000,256.000 53.424,256.000 53.655 C 256.000 53.753,255.887 53.833,255.750 53.833 C 255.612 53.833,255.500 53.908,255.500 54.000 C 255.500 54.092,255.379 54.167,255.232 54.167 C 254.942 54.167,253.500 55.542,253.500 55.819 C 253.500 55.911,253.200 56.284,252.833 56.647 C 252.467 57.010,252.167 57.380,252.167 57.469 C 252.167 57.558,252.054 57.674,251.917 57.727 C 251.779 57.780,251.667 57.975,251.667 58.161 C 251.667 58.348,251.592 58.500,251.500 58.500 C 251.408 58.500,251.333 58.688,251.333 58.917 C 251.333 59.176,251.239 59.333,251.083 59.333 C 250.928 59.333,250.833 59.491,250.833 59.750 C 250.833 59.979,250.758 60.167,250.667 60.167 C 250.575 60.167,250.500 60.354,250.500 60.583 C 250.500 60.843,250.406 61.000,250.250 61.000 C 250.094 61.000,250.000 61.157,250.000 61.417 C 250.000 61.646,249.926 61.833,249.835 61.833 C 249.745 61.833,249.623 62.133,249.564 62.500 C 249.505 62.867,249.392 63.167,249.312 63.167 C 249.232 63.167,249.167 63.534,249.167 63.982 C 249.167 64.553,249.092 64.826,248.917 64.894 C 248.733 64.964,248.667 65.254,248.667 65.985 C 248.667 66.532,248.592 67.027,248.500 67.083 C 248.395 67.148,248.333 68.891,248.333 71.760 C 248.333 74.698,248.393 76.333,248.500 76.333 C 248.593 76.333,248.667 76.778,248.667 77.333 C 248.667 78.111,248.722 78.333,248.917 78.333 C 249.105 78.333,249.167 78.536,249.167 79.157 C 249.167 79.610,249.233 80.021,249.314 80.072 C 249.396 80.122,249.512 80.426,249.572 80.748 C 249.632 81.070,249.753 81.333,249.841 81.333 C 249.928 81.333,250.000 81.521,250.000 81.750 C 250.000 82.009,250.094 82.167,250.250 82.167 C 250.417 82.167,250.500 82.333,250.500 82.667 C 250.500 82.942,250.575 83.167,250.667 83.167 C 250.758 83.167,250.833 83.354,250.833 83.583 C 250.833 83.843,250.928 84.000,251.083 84.000 C 251.221 84.000,251.336 84.131,251.339 84.292 C 251.345 84.652,251.721 85.167,251.977 85.167 C 252.081 85.167,252.167 85.354,252.167 85.583 C 252.167 85.813,252.242 86.000,252.333 86.000 C 252.425 86.000,252.500 86.112,252.500 86.250 C 252.500 86.388,252.580 86.500,252.679 86.500 C 252.909 86.500,253.333 86.924,253.333 87.155 C 253.333 87.253,253.446 87.333,253.583 87.333 C 253.721 87.333,253.833 87.446,253.833 87.583 C 253.833 87.721,253.946 87.833,254.083 87.833 C 254.221 87.833,254.336 87.965,254.339 88.125 C 254.347 88.568,254.744 89.000,255.143 89.000 C 255.349 89.000,255.500 89.106,255.500 89.250 C 255.500 89.388,255.580 89.500,255.679 89.500 C 255.909 89.500,256.333 89.924,256.333 90.155 C 256.333 90.253,256.446 90.333,256.583 90.333 C 256.721 90.333,256.833 90.408,256.833 90.500 C 256.833 90.592,257.021 90.667,257.250 90.667 C 257.509 90.667,257.667 90.761,257.667 90.917 C 257.667 91.054,257.779 91.167,257.917 91.167 C 258.054 91.167,258.167 91.240,258.167 91.330 C 258.167 91.420,258.354 91.541,258.583 91.598 C 258.813 91.656,259.000 91.770,259.000 91.851 C 259.000 91.933,259.188 92.000,259.417 92.000 C 259.676 92.000,259.833 92.094,259.833 92.250 C 259.833 92.406,259.991 92.500,260.250 92.500 C 260.479 92.500,260.667 92.575,260.667 92.667 C 260.667 92.758,260.967 92.833,261.333 92.833 C 261.815 92.833,262.000 92.903,262.000 93.083 C 262.000 93.239,262.157 93.333,262.417 93.333 C 262.646 93.333,262.833 93.408,262.833 93.500 C 262.833 93.592,263.208 93.667,263.667 93.667 C 264.296 93.667,264.500 93.728,264.500 93.917 C 264.500 94.106,264.704 94.167,265.333 94.167 C 265.792 94.167,266.167 94.242,266.167 94.333 C 266.167 94.432,266.772 94.500,267.649 94.500 C 268.813 94.500,269.152 94.554,269.227 94.750 C 269.307 94.958,269.773 95.000,271.995 95.000 C 274.259 95.000,274.667 94.962,274.667 94.750 C 274.667 94.546,274.944 94.500,276.167 94.500 C 277.056 94.500,277.667 94.432,277.667 94.333 C 277.667 94.242,278.042 94.167,278.500 94.167 C 279.130 94.167,279.333 94.106,279.333 93.917 C 279.333 93.761,279.491 93.667,279.750 93.667 C 279.979 93.667,280.167 93.592,280.167 93.500 C 280.167 93.408,280.386 93.333,280.655 93.333 C 280.923 93.333,281.255 93.221,281.393 93.083 C 281.530 92.946,281.771 92.833,281.927 92.833 C 282.084 92.833,282.386 92.646,282.598 92.417 C 282.810 92.188,283.138 92.000,283.325 92.000 C 283.513 92.000,283.667 91.942,283.667 91.871 C 283.667 91.800,283.929 91.601,284.250 91.428 C 284.571 91.256,284.833 91.013,284.833 90.890 C 284.833 90.767,284.914 90.667,285.012 90.667 C 285.243 90.667,285.667 90.243,285.667 90.012 C 285.667 89.914,285.747 89.833,285.846 89.833 C 286.160 89.833,287.000 88.872,287.000 88.513 C 287.000 88.322,287.080 88.167,287.179 88.167 C 287.409 88.167,287.833 87.743,287.833 87.512 C 287.833 87.414,287.946 87.333,288.083 87.333 C 288.239 87.333,288.333 87.176,288.333 86.917 C 288.333 86.688,288.408 86.500,288.500 86.500 C 288.592 86.500,288.667 86.313,288.667 86.083 C 288.667 85.824,288.761 85.667,288.917 85.667 C 289.072 85.667,289.167 85.509,289.167 85.250 C 289.167 85.021,289.242 84.833,289.333 84.833 C 289.425 84.833,289.500 84.646,289.500 84.417 C 289.500 84.157,289.594 84.000,289.750 84.000 C 289.915 84.000,290.000 83.835,290.000 83.514 C 290.000 83.247,290.077 83.002,290.171 82.971 C 290.604 82.826,290.429 81.918,289.958 81.864 C 289.696 81.834,289.500 81.709,289.500 81.572 C 289.500 81.441,289.354 81.333,289.177 81.333 C 288.999 81.333,288.807 81.258,288.750 81.167 C 288.435 80.658,287.000 81.235,287.000 81.870 C 287.000 82.033,286.925 82.167,286.833 82.167 C 286.742 82.167,286.667 82.279,286.667 82.417 C 286.667 82.554,286.572 82.667,286.457 82.667 C 286.342 82.667,286.152 82.883,286.035 83.147 C 285.768 83.750,285.270 84.333,285.022 84.333 C 284.918 84.333,284.833 84.414,284.833 84.512 C 284.833 84.743,284.409 85.167,284.179 85.167 C 284.080 85.167,284.000 85.247,284.000 85.345 C 284.000 85.613,283.560 86.000,283.257 86.000 C 283.110 86.000,282.946 86.112,282.894 86.250 C 282.841 86.388,282.693 86.500,282.566 86.500 C 282.438 86.500,282.333 86.612,282.333 86.750 C 282.333 86.906,282.176 87.000,281.917 87.000 C 281.688 87.000,281.500 87.075,281.500 87.167 C 281.500 87.258,281.313 87.333,281.083 87.333 C 280.824 87.333,280.667 87.428,280.667 87.583 C 280.667 87.757,280.492 87.833,280.093 87.833 C 279.778 87.833,279.473 87.908,279.417 88.000 C 279.360 88.092,279.056 88.167,278.740 88.167 C 278.341 88.167,278.167 88.243,278.167 88.417 C 278.167 88.616,277.918 88.667,276.927 88.667 C 276.244 88.667,275.640 88.742,275.583 88.833 C 275.527 88.925,274.922 89.000,274.240 89.000 C 273.524 89.000,273.000 88.930,273.000 88.833 C 273.000 88.742,272.597 88.667,272.104 88.667 C 271.510 88.667,271.137 88.582,271.000 88.417 C 270.886 88.279,270.614 88.167,270.396 88.167 C 270.178 88.167,270.000 88.092,270.000 88.000 C 270.000 87.908,269.813 87.833,269.583 87.833 C 269.324 87.833,269.167 87.739,269.167 87.583 C 269.167 87.428,269.009 87.333,268.750 87.333 C 268.521 87.333,268.333 87.258,268.333 87.167 C 268.333 87.075,268.221 87.000,268.083 87.000 C 267.946 87.000,267.833 86.899,267.833 86.776 C 267.833 86.653,267.571 86.411,267.250 86.238 C 266.929 86.066,266.667 85.866,266.667 85.795 C 266.667 85.725,266.554 85.667,266.417 85.667 C 266.279 85.667,266.167 85.554,266.167 85.417 C 266.167 85.279,266.086 85.167,265.988 85.167 C 265.694 85.167,265.333 84.714,265.333 84.345 C 265.333 84.149,265.225 84.000,265.083 84.000 C 264.946 84.000,264.833 83.887,264.833 83.750 C 264.833 83.612,264.758 83.500,264.667 83.500 C 264.575 83.500,264.500 83.313,264.500 83.083 C 264.500 82.854,264.415 82.667,264.310 82.667 C 264.052 82.667,263.678 82.151,263.672 81.786 C 263.669 81.623,263.554 81.446,263.417 81.394 C 263.279 81.341,263.167 81.118,263.167 80.899 C 263.167 80.679,263.092 80.500,263.000 80.500 C 262.908 80.500,262.833 80.273,262.833 79.995 C 262.833 79.699,262.729 79.450,262.583 79.394 C 262.420 79.331,262.333 79.072,262.333 78.649 C 262.333 78.183,262.263 78.000,262.083 78.000 C 261.903 78.000,261.833 77.815,261.833 77.333 C 261.833 76.967,261.758 76.667,261.667 76.667 C 261.574 76.667,261.500 76.222,261.500 75.667 C 261.500 74.889,261.444 74.667,261.250 74.667 C 261.046 74.667,261.000 74.389,261.000 73.167 L 261.000 71.667 275.917 71.667 L 290.833 71.667 290.833 68.667 C 290.833 67.017,290.768 65.667,290.687 65.667 C 290.607 65.667,290.506 65.239,290.463 64.717 C 290.419 64.194,290.297 63.738,290.192 63.703 C 290.086 63.668,290.000 63.345,290.000 62.986 C 290.000 62.517,289.930 62.333,289.750 62.333 C 289.569 62.333,289.500 62.148,289.500 61.667 C 289.500 61.300,289.425 61.000,289.333 61.000 C 289.242 61.000,289.167 60.813,289.167 60.583 C 289.167 60.324,289.072 60.167,288.917 60.167 C 288.761 60.167,288.667 60.009,288.667 59.750 C 288.667 59.521,288.592 59.333,288.500 59.333 C 288.408 59.333,288.333 59.146,288.333 58.917 C 288.333 58.657,288.239 58.500,288.083 58.500 C 287.928 58.500,287.833 58.343,287.833 58.083 C 287.833 57.854,287.758 57.667,287.667 57.667 C 287.575 57.667,287.500 57.554,287.500 57.417 C 287.500 57.279,287.387 57.167,287.250 57.167 C 287.108 57.167,287.000 57.017,287.000 56.821 C 287.000 56.461,286.160 55.500,285.846 55.500 C 285.747 55.500,285.667 55.422,285.667 55.326 C 285.667 55.150,285.425 54.814,285.036 54.450 C 284.482 53.932,284.345 53.833,284.179 53.833 C 284.080 53.833,284.000 53.753,284.000 53.655 C 284.000 53.424,283.576 53.000,283.345 53.000 C 283.247 53.000,283.167 52.887,283.167 52.750 C 283.167 52.612,283.054 52.500,282.917 52.500 C 282.779 52.500,282.667 52.426,282.667 52.337 C 282.667 52.247,282.479 52.126,282.250 52.068 C 282.021 52.011,281.833 51.897,281.833 51.815 C 281.833 51.734,281.646 51.667,281.417 51.667 C 281.188 51.667,281.000 51.586,281.000 51.488 C 281.000 51.176,280.538 50.833,280.116 50.833 C 279.891 50.833,279.614 50.721,279.500 50.583 C 279.386 50.446,279.114 50.333,278.896 50.333 C 278.678 50.333,278.500 50.258,278.500 50.167 C 278.500 50.075,278.200 50.000,277.833 50.000 C 277.352 50.000,277.167 49.931,277.167 49.750 C 277.167 49.569,276.981 49.500,276.500 49.500 C 276.133 49.500,275.833 49.425,275.833 49.333 C 275.833 49.238,275.329 49.167,274.655 49.167 C 273.829 49.167,273.401 49.092,273.226 48.917 C 273.032 48.722,272.532 48.667,270.983 48.667 C 269.365 48.667,268.971 48.714,268.894 48.917 M333.833 52.250 C 333.833 52.442,334.045 52.500,334.740 52.500 C 335.239 52.500,335.693 52.575,335.750 52.667 C 335.807 52.758,336.074 52.833,336.343 52.833 C 336.613 52.833,336.833 52.907,336.833 52.998 C 336.833 53.296,337.401 53.833,337.716 53.833 C 338.054 53.833,338.500 54.206,338.500 54.488 C 338.500 54.586,338.612 54.667,338.750 54.667 C 338.892 54.667,339.000 54.816,339.000 55.012 C 339.000 55.381,339.361 55.833,339.655 55.833 C 339.753 55.833,339.833 56.021,339.833 56.250 C 339.833 56.479,339.908 56.667,340.000 56.667 C 340.092 56.667,340.167 56.857,340.167 57.089 C 340.167 57.321,340.279 57.554,340.417 57.606 C 340.571 57.666,340.667 57.919,340.667 58.268 C 340.667 58.579,340.742 58.833,340.833 58.833 C 340.925 58.833,341.000 59.098,341.000 59.422 C 341.000 59.791,341.093 60.046,341.250 60.106 C 341.441 60.180,341.500 60.491,341.500 61.421 C 341.500 62.247,341.567 62.661,341.708 62.708 C 341.869 62.762,341.917 63.970,341.917 68.000 C 341.917 72.030,341.869 73.238,341.708 73.292 C 341.571 73.338,341.500 73.723,341.500 74.431 C 341.500 75.270,341.446 75.500,341.250 75.500 C 341.075 75.500,341.000 75.676,341.000 76.083 C 341.000 76.404,340.925 76.667,340.833 76.667 C 340.742 76.667,340.667 76.967,340.667 77.333 C 340.667 77.815,340.597 78.000,340.417 78.000 C 340.261 78.000,340.167 78.157,340.167 78.417 C 340.167 78.646,340.092 78.833,340.000 78.833 C 339.908 78.833,339.833 78.946,339.833 79.083 C 339.833 79.221,339.721 79.333,339.583 79.333 C 339.442 79.333,339.333 79.483,339.333 79.679 C 339.333 80.048,338.973 80.500,338.679 80.500 C 338.580 80.500,338.500 80.580,338.500 80.679 C 338.500 80.974,338.047 81.333,337.673 81.333 C 337.481 81.333,337.280 81.446,337.227 81.583 C 337.174 81.721,336.989 81.833,336.816 81.833 C 336.642 81.833,336.500 81.908,336.500 82.000 C 336.500 82.092,336.355 82.167,336.179 82.167 C 336.002 82.167,335.745 82.279,335.607 82.417 C 335.460 82.564,335.053 82.667,334.616 82.667 C 334.160 82.667,333.794 82.763,333.667 82.917 C 333.366 83.278,330.833 83.278,330.833 82.917 C 330.833 82.732,330.641 82.667,330.102 82.667 C 329.700 82.667,329.157 82.555,328.894 82.418 C 328.631 82.281,328.252 82.168,328.052 82.168 C 327.851 82.167,327.640 82.092,327.583 82.000 C 327.527 81.908,327.305 81.833,327.091 81.833 C 326.877 81.833,326.659 81.721,326.606 81.583 C 326.554 81.446,326.321 81.333,326.089 81.333 C 325.857 81.333,325.667 81.258,325.667 81.167 C 325.667 81.075,325.479 81.000,325.250 81.000 C 324.991 81.000,324.833 80.906,324.833 80.750 C 324.833 80.594,324.676 80.500,324.417 80.500 C 324.188 80.500,324.000 80.425,324.000 80.333 C 324.000 80.242,323.813 80.167,323.583 80.167 L 323.167 80.167 323.167 67.583 C 323.167 58.746,323.220 55.000,323.345 55.000 C 323.576 55.000,324.000 54.576,324.000 54.345 C 324.000 54.247,324.188 54.167,324.417 54.167 C 324.646 54.167,324.833 54.092,324.833 54.000 C 324.833 53.908,325.021 53.833,325.250 53.833 C 325.509 53.833,325.667 53.739,325.667 53.583 C 325.667 53.403,325.852 53.333,326.333 53.333 C 326.815 53.333,327.000 53.264,327.000 53.083 C 327.000 52.903,327.185 52.833,327.667 52.833 C 328.033 52.833,328.333 52.758,328.333 52.667 C 328.333 52.570,328.861 52.500,329.583 52.500 C 330.583 52.500,330.833 52.450,330.833 52.250 C 330.833 52.046,331.111 52.000,332.333 52.000 C 333.556 52.000,333.833 52.046,333.833 52.250 M153.394 53.083 C 153.446 53.221,153.671 53.333,153.894 53.333 C 154.116 53.333,154.341 53.446,154.394 53.583 C 154.446 53.721,154.603 53.833,154.742 53.833 C 155.017 53.833,157.167 55.904,157.167 56.170 C 157.167 56.260,157.279 56.333,157.417 56.333 C 157.572 56.333,157.667 56.491,157.667 56.750 C 157.667 57.009,157.761 57.167,157.917 57.167 C 158.090 57.167,158.167 57.341,158.167 57.740 C 158.167 58.056,158.242 58.360,158.333 58.417 C 158.425 58.473,158.500 58.743,158.500 59.015 C 158.500 59.302,158.605 59.551,158.750 59.606 C 158.913 59.669,159.000 59.928,159.000 60.351 C 159.000 60.708,159.075 61.000,159.167 61.000 C 159.265 61.000,159.333 61.585,159.333 62.422 C 159.333 63.532,159.388 63.865,159.583 63.940 C 159.782 64.016,159.833 64.373,159.833 65.684 L 159.833 67.333 151.083 67.333 L 142.333 67.333 142.333 65.018 C 142.333 63.113,142.378 62.685,142.583 62.606 C 142.755 62.541,142.833 62.273,142.833 61.755 C 142.833 61.340,142.908 61.000,143.000 61.000 C 143.092 61.000,143.167 60.700,143.167 60.333 C 143.167 59.852,143.236 59.667,143.417 59.667 C 143.591 59.667,143.667 59.491,143.667 59.083 C 143.667 58.762,143.742 58.500,143.833 58.500 C 143.925 58.500,144.000 58.354,144.000 58.175 C 144.000 57.997,144.188 57.648,144.417 57.401 C 144.646 57.154,144.833 56.812,144.833 56.642 C 144.833 56.472,144.946 56.333,145.083 56.333 C 145.221 56.333,145.333 56.253,145.333 56.155 C 145.333 55.924,145.757 55.500,145.988 55.500 C 146.086 55.500,146.167 55.400,146.167 55.278 C 146.167 55.156,146.354 54.956,146.583 54.833 C 146.813 54.711,147.000 54.511,147.000 54.389 C 147.000 54.266,147.112 54.167,147.250 54.167 C 147.387 54.167,147.500 54.092,147.500 54.000 C 147.500 53.908,147.652 53.833,147.839 53.833 C 148.025 53.833,148.220 53.721,148.273 53.583 C 148.332 53.429,148.586 53.333,148.934 53.333 C 149.326 53.333,149.500 53.256,149.500 53.083 C 149.500 52.876,149.822 52.833,151.399 52.833 C 152.933 52.833,153.316 52.881,153.394 53.083 M271.727 53.083 C 271.787 53.240,272.042 53.333,272.411 53.333 C 272.823 53.333,273.000 53.408,273.000 53.583 C 273.000 53.739,273.157 53.833,273.417 53.833 C 273.646 53.833,273.833 53.908,273.833 54.000 C 273.833 54.092,273.946 54.167,274.083 54.167 C 274.221 54.167,274.333 54.247,274.333 54.345 C 274.333 54.576,274.757 55.000,274.988 55.000 C 275.086 55.000,275.167 55.080,275.167 55.179 C 275.167 55.409,275.591 55.833,275.821 55.833 C 275.920 55.833,276.000 56.021,276.000 56.250 C 276.000 56.479,276.075 56.667,276.167 56.667 C 276.258 56.667,276.333 56.857,276.333 57.089 C 276.333 57.321,276.446 57.554,276.583 57.606 C 276.738 57.666,276.833 57.919,276.833 58.268 C 276.833 58.579,276.908 58.833,277.000 58.833 C 277.092 58.833,277.167 59.053,277.167 59.321 C 277.167 59.590,277.279 59.922,277.417 60.060 C 277.566 60.209,277.667 60.616,277.667 61.071 C 277.667 61.638,277.731 61.833,277.917 61.833 C 278.126 61.833,278.167 62.176,278.167 63.917 C 278.167 65.194,278.231 66.000,278.333 66.000 C 278.425 66.000,278.500 66.300,278.500 66.667 L 278.500 67.333 269.583 67.333 L 260.667 67.333 260.667 66.093 C 260.667 65.411,260.742 64.807,260.833 64.750 C 260.925 64.693,261.000 64.097,261.000 63.425 C 261.000 62.492,261.059 62.180,261.250 62.106 C 261.421 62.041,261.500 61.773,261.500 61.255 C 261.500 60.840,261.575 60.500,261.667 60.500 C 261.758 60.500,261.833 60.237,261.833 59.917 C 261.833 59.509,261.909 59.333,262.083 59.333 C 262.250 59.333,262.333 59.167,262.333 58.833 C 262.333 58.558,262.407 58.333,262.497 58.333 C 262.587 58.333,262.707 58.146,262.765 57.917 C 262.822 57.688,262.936 57.500,263.018 57.500 C 263.100 57.500,263.167 57.313,263.167 57.083 C 263.167 56.854,263.247 56.667,263.345 56.667 C 263.639 56.667,264.000 56.214,264.000 55.845 C 264.000 55.649,264.108 55.500,264.250 55.500 C 264.387 55.500,264.500 55.420,264.500 55.321 C 264.500 55.067,264.870 54.730,265.299 54.594 C 265.501 54.530,265.667 54.408,265.667 54.322 C 265.667 54.237,265.779 54.167,265.917 54.167 C 266.054 54.167,266.167 54.092,266.167 54.000 C 266.167 53.908,266.319 53.833,266.505 53.833 C 266.691 53.833,266.887 53.721,266.940 53.583 C 266.992 53.446,267.215 53.333,267.434 53.333 C 267.678 53.333,267.833 53.236,267.833 53.083 C 267.833 52.876,268.155 52.833,269.732 52.833 C 271.266 52.833,271.649 52.881,271.727 53.083 " stroke="none" fill="#040404" fill-rule="evenodd"></path><path id="path4" d="" stroke="none" fill="#c0d850" fill-rule="evenodd"></path></g></svg>